<svg xmlns="http://www.w3.org/2000/svg" xmlns:xlink="http://www.w3.org/1999/xlink" fill="none" version="1.1" width="18" height="18" viewBox="0 0 18 18"><g><g><g><path d="M12.033179687499999,3.85130984375C12.186609687499999,3.69786984375,12.2728196875,3.48976984375,12.2728196875,3.27277184375C12.2728196875,2.82090184375,11.9064996875,2.45458984375,11.454629687499999,2.45458984375C11.2376396875,2.45458984375,11.0295296875,2.54079084375,10.8760896875,2.69422984375L10.8757896875,2.69453684375L5.1488196875,8.42149984375C4.9953806875,8.57493984375,4.9091796875,8.78304984375,4.9091796875,9.000039843749999C4.9091796387326,9.217039843750001,4.9953806875,9.425149843749999,5.1488196875,9.578589843749999L10.8760896875,15.30588984375C11.0295296875,15.45928984375,11.2376396875,15.54548984375,11.454629687499999,15.54548984375C11.9064996875,15.54548984375,12.2728196875,15.17918984375,12.2728196875,14.72728984375C12.2728196875,14.51028984375,12.186609687499999,14.30218984375,12.033179687499999,14.14878984375L6.8844496875,9.000039843749999L12.0328696875,3.85161984375L12.033179687499999,3.85130984375Z" fill-rule="evenodd" fill="#4B4B4B" fill-opacity="1"/></g></g></g></svg>