<svg xmlns="http://www.w3.org/2000/svg" xmlns:xlink="http://www.w3.org/1999/xlink" fill="none" version="1.1" width="16" height="16" viewBox="0 0 16 16"><g><g><g><path d="M2.394926625,10.030944921875001L2.394653625,10.031214921875C2.258263725,10.167604921875,2.181640625,10.352594921875,2.181640625,10.545474921875C2.181640625,10.947134921875,2.507251625,11.272744921874999,2.908913625,11.272744921874999C3.101798625,11.272744921874999,3.286780625,11.196124921875,3.423170625,11.059734921875L7.999820625,6.483084921875L12.576440625,11.059734921875C12.712840625,11.196124921875,12.897840625,11.272744921874999,13.090740625,11.272744921874999C13.492440625,11.272744921874999,13.818040625,10.947134921875,13.818040625,10.545474921875C13.818040625,10.352594921875,13.741340625,10.167604921875,13.605040625,10.031214921875L8.514080625,4.940307921875C8.377690625,4.803918021875,8.192710625,4.727294921875,7.999820625,4.727294921875C7.806940625,4.7272948785262,7.621950625,4.803918021875,7.485560625,4.940307921875L2.394926625,10.030944921875001Z" fill-rule="evenodd" fill="#4B4B4B" fill-opacity="1"/></g></g></g></svg>