<svg xmlns="http://www.w3.org/2000/svg" xmlns:xlink="http://www.w3.org/1999/xlink" fill="none" version="1.1" width="24" height="24" viewBox="0 0 24 24"><defs><clipPath id="master_svg0_1564_050327"><rect x="0" y="0" width="24" height="24" rx="0"/></clipPath><filter id="master_svg1_1564_050329" filterUnits="objectBoundingBox" color-interpolation-filters="sRGB" x="0" y="0" width="21.388097763061523" height="13.545796394348145"><feFlood flood-opacity="0" result="BackgroundImageFix"/><feBlend mode="normal" in="SourceGraphic" in2="BackgroundImageFix" result="shape"/><feGaussianBlur in="BackgroundImage" stdDeviation="2.7200000286102295"/><feComposite in2="SourceAlpha" operator="in" result="effect1_foregroundBlur"/><feBlend mode="normal" in="SourceGraphic" in2="effect1_foregroundBlur" result="shape"/></filter><linearGradient x1="-0.0760020762681961" y1="-0.0668206587433815" x2="1.2926424741744995" y2="1.1462962627410889" id="master_svg2_1465_002547"><stop offset="0%" stop-color="#FFFFFF" stop-opacity="1"/><stop offset="100%" stop-color="#FFFFFF" stop-opacity="0"/></linearGradient><linearGradient x1="-0.16931873559951782" y1="0.21312934160232544" x2="0.5" y2="1" id="master_svg3_1465_002549"><stop offset="0%" stop-color="#FFFFFF" stop-opacity="1"/><stop offset="100%" stop-color="#FFFFFF" stop-opacity="0"/></linearGradient></defs><g><g clip-path="url(#master_svg0_1564_050327)"><g><path d="M0.9892578125,4.94849203125C0.9892578125,4.13646203125,0.9892578125,3.73045203125,1.1497918125,3.42141303125C1.2850728125,3.1609890312499997,1.4974148125,2.94864703125,1.7578388125,2.81336603125C2.0668778125,2.65283203125,2.4728878125,2.65283203125,3.2849178125,2.65283203125C3.2849178125,2.65283203125,9.2769778125,2.65283203125,9.2769778125,2.65283203125C9.6223978125,2.65283203125,9.7951178125,2.65283203125,9.9580178125,2.69162323125C10.0964878125,2.72460183125,10.2292478125,2.77813103125,10.3518678125,2.85043203125C10.4960978125,2.93547603125,10.6205278125,3.05527703125,10.8693378125,3.29488003125C10.8693378125,3.29488003125,11.0165578125,3.43665703125,11.0165578125,3.43665703125C11.2653578125,3.6762620312500003,11.3897578125,3.79606203125,11.5340578125,3.88110203125C11.6566578125,3.95341203125,11.7894578125,4.00693203125,11.9278578125,4.03991203125C12.0907578125,4.07870203125,12.2634578125,4.07870203125,12.6089578125,4.07870203125C12.6089578125,4.07870203125,18.6558578125,4.07870203125,18.6558578125,4.07870203125C19.4678578125,4.07870203125,19.8738578125,4.07870203125,20.1828578125,4.23924203125C20.4433578125,4.37452203125,20.6556578125,4.58686203125,20.7909578125,4.847292031249999C20.9514578125,5.15633203125,20.9514578125,5.56234203125,20.9514578125,6.37437203125C20.9514578125,6.37437203125,20.9514578125,20.04133203125,20.9514578125,20.04133203125C20.9514578125,20.44733203125,20.9514578125,20.65033203125,20.8712578125,20.80493203125C20.8035578125,20.93513203125,20.6974578125,21.04123203125,20.5671578125,21.10893203125C20.4126578125,21.18923203125,20.2096578125,21.18923203125,19.8036578125,21.18923203125C19.8036578125,21.18923203125,3.0553478125,21.18923203125,3.0553478125,21.18923203125C2.3245278125,21.18923203125,1.9591188124999999,21.18923203125,1.6809808125,21.04473203125C1.4465978125,20.92293203125,1.2554908125,20.73183203125,1.1337388125,20.49743203125C0.9892578125,20.21933203125,0.9892578125,19.85393203125,0.9892578125,19.12313203125C0.9892578125,19.12313203125,0.9892578125,4.94849203125,0.9892578125,4.94849203125Z" fill="#1E6FFF" fill-opacity="1"/></g><g filter="url(#master_svg1_1564_050329)"><path d="M6.2745890625000005,9.0837146875C6.4762390625,8.3901256875,6.5770490625,8.0433286875,6.8433190625,7.8434426875C7.1095890625,7.6435546875,7.4706190625,7.6435546875,8.1927090625,7.6435546875C8.1927090625,7.6435546875,21.3429390625,7.6435546875,21.3429390625,7.6435546875C22.4799390625,7.6435546875,23.0485390625,7.6435546875,23.3480390625,8.0127816875C23.6476390625,8.3820056875,23.5305390625,8.9383446875,23.2963390625,10.0510246875C23.2963390625,10.0510246875,21.2850390625,19.6043546875,21.2850390625,19.6043546875C21.1252390625,20.363654687500002,21.0453390625,20.7432546875,20.7704390625,20.9663546875C20.4955390625,21.1893546875,20.1075390625,21.1893546875,19.3316390625,21.1893546875C19.3316390625,21.1893546875,2.4150390625,21.1893546875,2.4150390625,21.1893546875C3.1525590625,20.3872546875,3.1525590625,19.5852546875,3.8900790625,17.179074687499998C4.4192190625,15.452794687499999,5.6316690625,11.2953146875,6.2745890625000005,9.0837146875Z" fill="#AFCBF7" fill-opacity="0.2901824712753296"/><path d="M6.2745890625000005,9.0837146875C6.4762390625,8.3901256875,6.5770490625,8.0433286875,6.8433190625,7.8434426875C7.1095890625,7.6435546875,7.4706190625,7.6435546875,8.1927090625,7.6435546875L21.3429390625,7.6435546875C22.4799390625,7.6435546875,23.0485390625,7.6435546875,23.3480390625,8.0127816875C23.6476390625,8.3820056875,23.5305390625,8.9383446875,23.2963390625,10.0510246875L21.2850390625,19.6043546875C21.1252390625,20.363654687500002,21.0453390625,20.7432546875,20.7704390625,20.9663546875C20.4955390625,21.1893546875,20.1075390625,21.1893546875,19.3316390625,21.1893546875L2.4150390625,21.1893546875C2.6947360625,20.8851546875,2.8683610625,20.5810546875,3.0163670625,20.1893546875C3.2586310625,19.5482546875,3.4322590625,18.6727546875,3.8900790625,17.179074687499998C4.4192190625,15.452794687499999,5.6316690625,11.2953146875,6.2745890625000005,9.0837146875ZM19.3316390625,20.1893546875L4.0705590625,20.1893546875Q4.1950490625,19.7947546875,4.3603790625,19.180854687500002Q4.6351890625,18.1604546875,4.8461790625,17.472134687500002L6.1460690625000005,13.0942446875L7.2345590625,9.3638246875L7.2348390625,9.3628846875L7.2348690625,9.3627746875Q7.3950290625,8.8118446875,7.4560890625,8.6671146875Q7.4571090625,8.6647146875,7.4580990625,8.6623746875Q7.4605890625,8.6620846875,7.4631490625,8.661784687499999Q7.6191190625,8.6435546875,8.1927090625,8.6435546875L21.3429390625,8.6435546875Q22.2664390625,8.6435546875,22.5175390625,8.6795746875Q22.5213390625,8.6801146875,22.5249390625,8.6806546875Q22.5247390625,8.6843546875,22.5245390625,8.6881446875Q22.5080390625,8.9412646875,22.3177390625,9.8450246875L20.3065390625,19.3983546875L20.3065390625,19.3984546875Q20.1791390625,20.0032546875,20.1245390625,20.1633546875Q20.1236390625,20.1658546875,20.1228390625,20.1682546875Q20.1203390625,20.1685546875,20.1177390625,20.1688546875Q19.9497390625,20.1893546875,19.3316390625,20.1893546875Z" fill-rule="evenodd" fill="#A1C4FC" fill-opacity="1"/></g><g><path d="M3,5C3,4.447716,3.373097,4,3.833334,4C3.833334,4,7.16667,4,7.16667,4C7.6269,4,8.00001,4.447716,8.00001,5C8.00001,5.55228,7.6269,6,7.16667,6C7.16667,6,3.833334,6,3.833334,6C3.373097,6,3,5.55228,3,5Z" fill="url(#master_svg2_1465_002547)" fill-opacity="0.8999999761581421"/><path d="M3,5C3,4.447716,3.373097,4,3.833334,4L7.16667,4C7.6269,4,8.00001,4.447716,8.00001,5C8.00001,5.55228,7.6269,6,7.16667,6L3.833334,6C3.373097,6,3,5.55228,3,5ZM3.3,5Q3.3,5.3056,3.474544,5.5150500000000005Q3.6286680000000002,5.7,3.833334,5.7L7.16667,5.7Q7.37133,5.7,7.52546,5.5150500000000005Q7.70001,5.3056,7.70001,5Q7.70001,4.6944040000000005,7.52546,4.484949Q7.37133,4.3,7.16667,4.3L3.833334,4.3Q3.628669,4.3,3.474544,4.484949Q3.3,4.694402,3.3,5Z" fill-rule="evenodd" fill="url(#master_svg3_1465_002549)" fill-opacity="1"/></g></g></g></svg>