<svg xmlns="http://www.w3.org/2000/svg" xmlns:xlink="http://www.w3.org/1999/xlink" fill="none" version="1.1" width="16" height="16" viewBox="0 0 16 16"><g><g style="opacity:0.20000000298023224;"><path d="M2.666673505859375,1.33331298828125L13.333343505859375,1.33331298828125C14.069643505859375,1.33331298828125,14.666643505859374,1.93027798828125,14.666643505859374,2.66664298828125L14.666643505859374,12.00001298828125C14.666643505859374,12.73641298828125,14.069643505859375,13.33331298828125,13.333343505859375,13.33331298828125L8.855963505859375,13.33331298828125L6.195483505859375,15.21131298828125C5.846853505859375,15.45741298828125,5.359873505859375,15.31701298828125,5.195643505859374,14.92311298828125L4.533373505859375,13.33331298828125L2.666673505859375,13.33331298828125C1.930348505859375,13.33331298828125,1.333343505859375,12.73641298828125,1.333343505859375,12.00001298828125L1.333343505859375,2.66664298828125C1.333343505859375,1.93027798828125,1.930348505859375,1.33331298828125,2.666673505859375,1.33331298828125Z" fill-rule="evenodd" fill="#2C54D1" fill-opacity="1"/></g><g><path d="M1.333343505859375,2.66664298828125L1.333343505859375,12.00001298828125Q1.333343505859375,12.55231298828125,1.7238055058593749,12.94281298828125Q2.114430505859375,13.33331298828125,2.666673505859375,13.33331298828125L4.555513505859375,13.33331298828125L5.217943505859375,14.92311298828125C5.236823505859375,14.96821298828125,5.260423505859375,15.01111298828125,5.288743505859375,15.05111298828125C5.500983505859375,15.35191298828125,5.917003505859375,15.42361298828125,6.217783505859375,15.21131298828125L8.878263505859376,13.33331298828125L13.333343505859375,13.33331298828125Q13.885543505859374,13.33331298828125,14.276243505859375,12.94281298828125Q14.666643505859374,12.55231298828125,14.666643505859374,12.00001298828125L14.666643505859374,2.66664298828125Q14.666643505859374,2.11435998828125,14.276243505859375,1.72385698828125Q13.885543505859374,1.33331298828125,13.333343505859375,1.33331298828125L2.666673505859375,1.33331298828125Q2.114430505859375,1.33331298828125,1.7238055058593749,1.72385698828125Q1.333343505859375,2.11435998828125,1.333343505859375,2.66664298828125ZM5.000013505859375,12.00001298828125L2.666673505859375,12.00001298828125L2.666673505859375,2.66664298828125L13.333343505859375,2.66664298828125L13.333343505859375,12.00001298828125L8.666673505859375,12.00001298828125C8.528983505859376,12.00001298828125,8.394703505859376,12.04261298828125,8.282233505859374,12.12201298828125L6.128753505859375,13.64211298828125L5.615403505859375,12.41021298828125C5.511893505859375,12.16181298828125,5.2692135058593745,12.00001298828125,5.000013505859375,12.00001298828125Z" fill-rule="evenodd" fill="#2C54D1" fill-opacity="1"/></g></g></svg>