<svg xmlns="http://www.w3.org/2000/svg" xmlns:xlink="http://www.w3.org/1999/xlink" fill="none" version="1.1" width="16" height="16" viewBox="0 0 16 16"><g><g><g style="opacity:0.20000000298023224;"></g><g><path d="M14.3234078125,4.083896494140625L8.323407812500001,0.7505594941406251C8.1220678125,0.638702394140625,7.8772778125,0.638702394140625,7.6759478125,0.7505594941406251L1.6759438125,4.083896494140625C1.4641928124999999,4.201446494140625,1.3330078125,4.424546494140625,1.3330078125,4.666656494140625L1.3330078125,11.333356494140626C1.3330078125,11.575456494140624,1.4641928124999999,11.798556494140625,1.6759438125,11.916056494140625L7.6759478125,15.249456494140626C7.8772778125,15.361256494140624,8.1220678125,15.361256494140624,8.323407812500001,15.249456494140626L14.3234078125,11.916056494140625C14.5351078125,11.798556494140625,14.6663078125,11.575456494140624,14.6663078125,11.333356494140626L14.6663078125,4.666656494140625C14.6663078125,4.424546494140625,14.5351078125,4.201446494140625,14.3234078125,4.083896494140625ZM7.9996778125,2.0959764941406247L3.3766278125,4.664336494140625L8.0224578125,7.224716494140625L12.6269078125,4.666656494140625L7.9996778125,2.0959764941406247ZM13.3330078125,5.799676494140625L13.3330078125,10.941056494140625L8.6663378125,13.533656494140626L8.6663378125,8.392246494140625L13.3330078125,5.799676494140625ZM2.6663378125,5.799676494140625L7.3330078125,8.392246494140625L7.3330078125,13.533656494140626L2.6663378125,10.941056494140625L2.6663378125,5.799676494140625Z" fill-rule="evenodd" fill="#4B4B4B" fill-opacity="1"/></g></g></g></svg>