<svg xmlns="http://www.w3.org/2000/svg" xmlns:xlink="http://www.w3.org/1999/xlink" fill="none" version="1.1" width="16" height="16" viewBox="0 0 16 16"><g><g><path d="M9.8001321875,13.716271752929687Q8.6596721875,13.929871752929687,8.0003221875,13.929871752929687Q6.5219721875,13.929871752929687,5.1694321875,13.417971752929688Q3.8569321875,12.921271752929687,2.8417921875,12.012971752929687Q1.8185221875,11.097371752929687,1.2548831875,9.905031752929688Q0.6669921875,8.661461752929688,0.6669921875,7.298261752929688Q0.6669921875,5.935061752929688,1.2548831875,4.691491752929688Q1.8185221875,3.4991117529296876,2.8417921875,2.583581752929687Q3.8569321875,1.6753017529296874,5.1694321875,1.1785537529296874Q6.5219721875,0.6666717529296875,8.0003221875,0.6666717529296875Q9.4786821875,0.6666717529296875,10.8311921875,1.1785537529296874Q12.1436921875,1.6753017529296874,13.1588921875,2.583581752929687Q14.1820921875,3.4991117529296876,14.7457921875,4.691491752929688Q15.3336921875,5.935061752929688,15.3336921875,7.298261752929688Q15.3336921875,9.553711752929688,13.8188921875,11.336371752929688Q13.7297921875,11.441271752929687,13.5845921875,11.594071752929688L13.9940921875,14.575971752929687C14.0181921875,14.751171752929688,13.9716921875,14.928671752929688,13.8647921875,15.069571752929688C13.7579921875,15.210471752929687,13.5995921875,15.303071752929688,13.4242921875,15.327171752929688C13.2952921875,15.344871752929688,13.1636921875,15.324371752929688,13.0460921875,15.268171752929687L9.8001321875,13.716271752929687ZM10.1774121875,12.418671752929688C10.0478521875,12.356771752929687,9.9018521875,12.338271752929687,9.7609021875,12.366171752929688Q8.591472187499999,12.596571752929687,8.0003221875,12.596571752929687Q5.4934921875,12.596571752929687,3.7307921875,11.019271752929688Q2.0003221875,9.470951752929688,2.0003221875,7.298261752929688Q2.0003221875,5.125571752929687,3.7307921875,3.5772317529296873Q5.4934921875,2.0000017529296876,8.0003221875,2.0000017529296876Q10.5071621875,2.0000017529296876,12.2698921875,3.5772317529296873Q14.0002921875,5.125571752929687,14.0002921875,7.298261752929688Q14.0002921875,9.063721752929688,12.8028921875,10.473071752929688Q12.6842921875,10.612711752929687,12.4060921875,10.893471752929688C12.2602921875,11.040871752929688,12.1912921875,11.247771752929687,12.2193921875,11.453271752929687L12.5048921875,13.531471752929688L10.1774121875,12.418671752929688ZM8.0003221875,10.666671752929688Q10.1082321875,10.666671752929688,11.0937921875,9.845541752929687C11.2457921875,9.718841752929688,11.3336921875,9.531171752929687,11.3336921875,9.333341752929687L11.3336921875,9.324871752929688C11.3316921875,9.171801752929687,11.2771921875,9.024171752929687,11.1791921875,8.906581752929688C11.0525921875,8.754561752929687,10.8648921875,8.666671752929688,10.6669921875,8.666671752929688L10.6585321875,8.666751752929688C10.5055321875,8.668711752929687,10.3577521875,8.723231752929687,10.2402321875,8.821131752929688Q9.9736321875,9.043221752929687,9.3792321875,9.184821752929688Q8.7553721875,9.333341752929687,8.0003221875,9.333341752929687Q7.2452821875,9.333341752929687,6.6214221875,9.184821752929688Q6.0270221875,9.043221752929687,5.7604121875,8.821131752929688C5.6406221875,8.721361752929688,5.4895821875,8.666671752929688,5.3336621875,8.666671752929688L5.3334921875,8.666671752929688C5.3133121875,8.666671752929688,5.2932921875,8.667571752929687,5.2732721875,8.669441752929687C5.0971721875,8.685471752929688,4.9347321875,8.770761752929687,4.8214521875,8.906581752929688C4.7216821875,9.026371752929688,4.6669921875,9.177411752929688,4.6669921875,9.333341752929687C4.6669921875,9.531251752929688,4.7548821875,9.718841752929688,4.9069021875,9.845541752929687Q5.8924121875,10.666671752929688,8.0003221875,10.666671752929688Z" fill-rule="evenodd" fill="#FFFFFF" fill-opacity="1"/></g></g></svg>