<svg xmlns="http://www.w3.org/2000/svg" xmlns:xlink="http://www.w3.org/1999/xlink" fill="none" version="1.1" width="16" height="16" viewBox="0 0 16 16"><g><g><path d="M3.78694015625,2.75842315625C3.65055015625,2.62203325625,3.46556715625,2.54541015625,3.27268315625,2.54541015625C3.07979815625,2.54541015625,2.89481315625,2.62203325625,2.75842315625,2.75842315625C2.62203325625,2.89481315625,2.54541015625,3.07979815625,2.54541015625,3.27268315625C2.54541015625,3.46556715625,2.62203325625,3.65055015625,2.75842315625,3.78694015625L6.97144015625,7.99996015625L2.75869615625,12.21270015625L2.75842315625,12.21297015625C2.62203325625,12.34936015625,2.54541015625,12.53434015625,2.54541015625,12.72721015625C2.5454101995988,12.73891015625,2.54569014625,12.75051015625,2.54624978025,12.76221015625C2.55493484625,12.94271015625,2.63057685625,13.11361015625,2.75842315625,13.24151015625C2.89481315625,13.37791015625,3.07979815625,13.45451015625,3.27268315625,13.45451015625C3.46556715625,13.45451015625,3.65055015625,13.37791015625,3.78694015625,13.24151015625L3.78721015625,13.24121015625L7.99996015625,9.02847015625L12.21297015625,13.24151015625C12.34936015625,13.37791015625,12.53434015625,13.45451015625,12.72721015625,13.45451015625C12.92011015625,13.45451015625,13.10511015625,13.37791015625,13.24151015625,13.24151015625C13.37791015625,13.10511015625,13.45451015625,12.92011015625,13.45451015625,12.72721015625C13.45451015625,12.53434015625,13.37791015625,12.34936015625,13.24151015625,12.21297015625L9.02847015625,7.99996015625L13.24121015625,3.78721015625L13.24151015625,3.78694015625C13.37791015625,3.65055015625,13.45451015625,3.46556715625,13.45451015625,3.27268315625C13.45451015625,3.07979815625,13.37791015625,2.89481315625,13.24151015625,2.75842315625L13.24111015625,2.75800715625C13.24111015625,2.75800715625,13.23521015625,2.75222115625,13.23521015625,2.75222115625L13.23481015625,2.75181015625C13.09901015625,2.61947195625,12.91681015625,2.54541015625,12.72721015625,2.54541015625C12.53434015625,2.54541015625,12.34936015625,2.62203325625,12.21297015625,2.75842315625L12.21270015625,2.75869615625L7.99996015625,6.97144015625L3.78694015625,2.75842315625Z" fill-rule="evenodd" fill="#4B4B4B" fill-opacity="1"/></g></g></svg>