<svg xmlns="http://www.w3.org/2000/svg" xmlns:xlink="http://www.w3.org/1999/xlink" fill="none" version="1.1" width="20" height="20" viewBox="0 0 20 20"><g><g><path d="M3.75,1.25L12.505,1.25L17.5,6.2539L17.5,17.5C17.5,18.1904,16.9404,18.75,16.25,18.75L3.75,18.75C3.059644,18.75,2.5,18.1904,2.5,17.5L2.5,2.5C2.4999999999999996,1.809644,3.059644,1.25,3.75,1.25Z" fill-rule="evenodd" fill="#E7ECEF" fill-opacity="1"/></g><g style="opacity:0.15418100357055664;"><path d="M12.5,1.25L17.5,6.25L13.5,6.25C12.947715,6.25,12.5,5.80228,12.5,5.25L12.5,1.25Z" fill-rule="evenodd" fill="#000000" fill-opacity="1"/></g><g><path d="M1.25,13.25C1.25,13.52614,1.473858,13.75,1.75,13.75L18.25,13.75C18.5261,13.75,18.75,13.52614,18.75,13.25L18.75,8C18.75,7.723858,18.5261,7.5,18.25,7.5L1.75,7.5C1.473858,7.5,1.25,7.723858,1.25,8L1.25,13.25Z" fill="#2C54D1" fill-opacity="1"/></g><g><path d="M6.246149104003907,8.76935537890625Q6.246149104003907,8.63712837890625,6.313439104003907,8.55397797890625Q6.387519104003906,8.46247008442625,6.553019104003907,8.46246337890625Q6.704269104003906,8.46246337890625,6.786559104003906,8.55310057890625Q6.865519104003907,8.64008337890625,6.865519104003907,8.76969937890625L6.865519104003907,12.29585337890625Q6.865519104003907,12.42417337890625,6.790849104003906,12.51077337890625Q6.711229104003906,12.60309337890625,6.558649104003907,12.60308337890625Q6.406279104003906,12.60308337890625,6.323869104003906,12.50833337890625Q6.246149104003907,12.41895337890625,6.246149104003907,12.29058337890625L6.246149104003907,10.75807337890625L4.362392104003906,10.75807337890625L4.362392104003906,12.29551337890625Q4.362392104003906,12.42397337890625,4.287758104003906,12.51062337890625Q4.208139104003906,12.603073378906249,4.055519104003906,12.60308337890625Q3.903151104003906,12.60308337890625,3.8207436040039062,12.50833337890625Q3.7430216372039062,12.41895337890625,3.7430191040039062,12.29058337890625L3.7430191040039062,8.76935537890625Q3.7430191040039062,8.63990237890625,3.822021504003906,8.55298617890625Q3.9043091040039064,8.46246993541625,4.055519104003906,8.46246337890625Q4.208065104003906,8.46246337890625,4.287681104003906,8.55466457890625Q4.3623971040039065,8.64117737890625,4.362392104003906,8.76935537890625L4.362392104003906,10.20059337890625L6.246149104003907,10.20059337890625L6.246149104003907,8.76935537890625ZM14.745319104003906,12.18778337890625Q14.764619104003906,12.32332337890625,14.734919104003906,12.43882337890625Q14.692719104003906,12.603103378906251,14.467419104003906,12.60308337890625Q14.322819104003907,12.60308337890625,14.251519104003906,12.50955337890625Q14.193219104003907,12.43299337890625,14.167219104003907,12.270673378906249L13.840819104003906,10.02504337890625L13.798819104003906,9.76186337890625Q13.776519104003906,9.62328337890625,13.750019104003906,9.51917337890625L12.931729104003907,12.33648337890625Q12.898369104003907,12.462583378906249,12.842689104003906,12.525653378906249Q12.774379104003906,12.603073378906249,12.644899104003906,12.60308337890625Q12.511249104003907,12.60308337890625,12.445929104003906,12.533093378906251Q12.392179104003906,12.47549337890625,12.352639104003906,12.33712337890625L11.922629104003907,10.89814337890625Q11.713929104003906,10.20973337890625,11.518139104003907,9.51036337890625L11.111449104003906,12.25839337890625Q11.092089104003907,12.406933378906249,11.032559104003905,12.49448337890625Q10.958709104003907,12.60309337890625,10.783019104003905,12.60308337890625Q10.625749104003905,12.60308337890625,10.559669104003905,12.489183378906251Q10.502969104003906,12.39141337890625,10.533559104003906,12.21997337890625L11.045289104003906,8.87422137890625Q11.071569104003906,8.67698037890625,11.180609104003906,8.57144937890625Q11.293239104003906,8.46245175600625,11.469269104003907,8.46246337890625Q11.640219104003906,8.46246337890625,11.756859104003906,8.55435947890625Q11.871279104003905,8.64451037890625,11.935499104003906,8.85644537890625L12.649539104003907,11.375633378906251L13.348069104003907,8.85285937890625Q13.406499104003906,8.64510537890625,13.521689104003906,8.55435947890625Q13.638329104003907,8.46246486902625,13.803619104003907,8.46246337890625Q13.972519104003906,8.46246337890625,14.090419104003907,8.56984737890625Q14.205819104003906,8.67487337890625,14.238819104003905,8.87971537890625L14.745319104003906,12.18778337890625ZM16.914219104003905,11.97248337890625Q17.04081910400391,11.97248337890625,17.124019104003906,12.03977337890625Q17.215519104003906,12.11385337890625,17.215519104003906,12.26247337890625Q17.215519104003906,12.406693378906251,17.119619104003906,12.48075337890625Q17.034119104003906,12.54682337890625,16.914219104003905,12.54682337890625L15.508019104003907,12.54682337890625Q15.332119104003906,12.54682337890625,15.230819104003906,12.44924337890625Q15.128019104003906,12.35030337890625,15.128019104003906,12.18934337890625L15.128019104003906,8.75810237890625Q15.128019104003906,8.61680537890625,15.220219104003906,8.53719327890625Q15.306719104003907,8.46247738600625,15.434919104003907,8.46246337890625Q15.747419104003907,8.46246337890625,15.747419104003907,8.75810237890625L15.747419104003907,11.97248337890625L16.914219104003905,11.97248337890625ZM9.160519104003907,12.29058337890625L9.160519104003907,9.10432437890625L9.978639104003907,9.10432437890625Q10.081629104003905,9.10432437890625,10.172729104003906,9.04969737890625Q10.285519104003907,8.98202137890625,10.285509104003907,8.81997637890625Q10.285509104003907,8.67868037890625,10.193329104003906,8.59906737890625Q10.106819104003907,8.52435207890625,9.978639104003907,8.52433777890625L7.728649104003907,8.52433777890625Q7.603159104003906,8.52433777890625,7.517639104003907,8.59040837890625Q7.421769104003906,8.66449237890625,7.421759104003906,8.81433137890625Q7.421759104003906,8.97016737890625,7.5152991040039065,9.04142037890625Q7.597849104003906,9.10431937890625,7.728649104003907,9.10432437890625L8.546769104003907,9.10432437890625L8.546769104003907,12.29058337890625Q8.546769104003907,12.42699337890625,8.609679104003906,12.50955337890625Q8.680939104003906,12.60308337890625,8.853649104003907,12.60308337890625Q9.025069104003906,12.60308337890625,9.096339104003906,12.514013378906249Q9.160509104003907,12.43379337890625,9.160519104003907,12.29058337890625Z" fill-rule="evenodd" fill="#FFFFFF" fill-opacity="1"/></g></g></svg>