<svg xmlns="http://www.w3.org/2000/svg" xmlns:xlink="http://www.w3.org/1999/xlink" fill="none" version="1.1" width="24" height="24" viewBox="0 0 24 24"><g><g style="opacity:0.3199999928474426;"><path d="M21,12C21.5128,12,21.9355,12.38604,21.9933,12.883379L22,13L22,20C22,21.054360000000003,21.1841,21.91817,20.1493,21.99451L20,22L4,22C2.9456379999999998,22,2.0818349,21.18412,2.00548574,20.149259999999998L2,20L2,13.00369C2,12.451404,2.447715,12.00368889,3,12.00368889C3.5128399999999997,12.00368889,3.93551,12.389728999999999,3.99327,12.887068L4,13.00369L4,20L20,20L20,13C20,12.447715,20.4477,12,21,12Z" fill-rule="evenodd" fill="#2C54D1" fill-opacity="1"/></g><g><path d="M12.200483878173827,2.0202232C12.135533878173828,2.00696291,12.068283878173828,2,11.999403878173828,2C11.714303878173828,2,11.457063878173829,2.119315,11.274893878173827,2.310737L7.292738878173828,6.29289C6.662773878173828,6.92286,7.108939878173828,8,7.999843878173828,8L10.999403878173828,8L10.999403878173828,15L11.006133878173827,15.1166C11.063903878173829,15.614,11.486573878173829,16,11.999403878173828,16C12.551693878173829,16,12.999403878173828,15.5523,12.999403878173828,15L12.999403878173828,8L15.999843878173827,8C16.89075387817383,8,17.336943878173827,6.92286,16.706953878173827,6.29289L12.706953878173827,2.292893C12.562993878173828,2.148939,12.386073878173828,2.0580493,12.200483878173827,2.0202232Z" fill-rule="evenodd" fill="#2C54D1" fill-opacity="1"/></g></g></svg>