<svg xmlns="http://www.w3.org/2000/svg" xmlns:xlink="http://www.w3.org/1999/xlink" fill="none" version="1.1" width="20" height="20" viewBox="0 0 20 20"><g><g><path d="M3.75,1.25L12.505,1.25L17.5,6.2539L17.5,17.5C17.5,18.1904,16.9404,18.75,16.25,18.75L3.75,18.75C3.059644,18.75,2.5,18.1904,2.5,17.5L2.5,2.5C2.4999999999999996,1.809644,3.059644,1.25,3.75,1.25Z" fill-rule="evenodd" fill="#E7ECEF" fill-opacity="1"/></g><g style="opacity:0.15418100357055664;"><path d="M12.5,1.25L17.5,6.25L13.5,6.25C12.947715,6.25,12.5,5.80228,12.5,5.25L12.5,1.25Z" fill-rule="evenodd" fill="#000000" fill-opacity="1"/></g><g><rect x="1.25" y="10" width="12.5" height="6.25" rx="0.5" fill="#FD7E14" fill-opacity="1"/></g><g><path d="M3.490201455810547,14.855228276977538Q3.670701455810547,14.855228276977538,3.763326455810547,14.75547827697754Q3.8559514558105468,14.65572827697754,3.8559514558105468,14.475228276977539L3.8559514558105468,13.605978276977538L4.649203455810547,13.605978276977538Q5.209703455810547,13.605978276977538,5.513703455810546,13.32097827697754Q5.8177034558105465,13.03597827697754,5.8177034558105465,12.532478276977539Q5.8177034558105465,12.02897427697754,5.513703455810546,11.74634927697754Q5.209703455810547,11.463724147977539,4.649203455810547,11.46372413597754L3.494951455810547,11.46372413597754Q3.1197014078105467,11.46372413597754,3.1197013858105467,11.83897427697754L3.1197013858105467,14.475228276977539Q3.1197013858105467,14.65572827697754,3.214701355810547,14.75547827697754Q3.309701455810547,14.855228276977538,3.490201455810547,14.855228276977538ZM6.644133455810547,14.855228276977538Q6.824633455810547,14.855228276977538,6.917253455810547,14.75547827697754Q7.009883455810547,14.65572827697754,7.009883455810547,14.475228276977539L7.009883455810547,13.605978276977538L7.8031334558105465,13.605978276977538Q8.363633455810547,13.605978276977538,8.667633455810547,13.32097827697754Q8.971633455810547,13.03597827697754,8.971633455810547,12.532478276977539Q8.971633455810547,12.02897427697754,8.667633455810547,11.74634927697754Q8.363633455810547,11.463724147977539,7.8031334558105465,11.46372413597754L6.648883455810546,11.46372413597754Q6.273633455810547,11.46372413597754,6.273633455810547,11.83897427697754L6.273633455810547,14.475228276977539Q6.273633455810547,14.65572827697754,6.3686334558105475,14.75547827697754Q6.463633455810546,14.855228276977538,6.644133455810547,14.855228276977538ZM10.596233455810546,14.855228276977538C10.716563455810547,14.855228276977538,10.807603455810547,14.82197827697754,10.869353455810547,14.75547827697754Q10.961983455810547,14.65572827697754,10.961983455810547,14.475228276977539L10.961983455810547,12.07172427697754L11.802733455810547,12.07172427697754Q12.111483455810546,12.07172427697754,12.111483455810546,11.767724276977539Q12.111483455810546,11.618080276977539,12.036673455810547,11.542098876977539Q11.959503455810546,11.46372413297754,11.802733455810547,11.46372413597754L9.384983455810547,11.46372413597754Q9.076233455810547,11.46372413597754,9.076233455810547,11.767724276977539Q9.076233455810547,12.07172427697754,9.384983455810547,12.07172427697754L10.225733455810547,12.07172427697754L10.225733455810547,14.475228276977539Q10.225733455810547,14.65572827697754,10.320733455810547,14.75547827697754C10.384063455810548,14.82197827697754,10.475903455810547,14.855228276977538,10.596233455810546,14.855228276977538ZM3.855907455810547,13.035958276977539L4.525653455810547,13.035958276977539Q5.109903455810547,13.035958276977539,5.109903455810547,12.53245827697754Q5.109903455810547,12.038460276977538,4.525653455810547,12.038460276977538L3.855907455810547,12.038460276977538L3.855907455810547,13.035958276977539ZM7.0099634558105475,13.035958276977539L7.679713455810547,13.035958276977539Q8.263963455810547,13.035958276977539,8.263963455810547,12.53245827697754Q8.263963455810547,12.038460276977538,7.679713455810547,12.038460276977538L7.0099634558105475,12.038460276977538L7.0099634558105475,13.035958276977539Z" fill-rule="evenodd" fill="#FFFFFF" fill-opacity="1"/></g></g></svg>