<svg xmlns="http://www.w3.org/2000/svg" xmlns:xlink="http://www.w3.org/1999/xlink" fill="none" version="1.1" width="20" height="20" viewBox="0 0 20 20"><g><g><path d="M3.75,1.25L12.505,1.25L17.5,6.2539L17.5,17.5C17.5,18.1904,16.9404,18.75,16.25,18.75L3.75,18.75C3.059644,18.75,2.5,18.1904,2.5,17.5L2.5,2.5C2.4999999999999996,1.809644,3.059644,1.25,3.75,1.25Z" fill-rule="evenodd" fill="#E7ECEF" fill-opacity="1"/></g><g style="opacity:0.15418100357055664;"><path d="M12.5,1.25L17.5,6.25L13.5,6.25C12.947715,6.25,12.5,5.80228,12.5,5.25L12.5,1.25Z" fill-rule="evenodd" fill="#000000" fill-opacity="1"/></g><g><rect x="1.25" y="10" width="12.5" height="6.25" rx="0.5" fill="#848AF6" fill-opacity="1"/></g><g><path d="M10.657952181091309,14.817268096923828C10.48061218109131,14.848938096923828,10.304862181091309,14.864768096923829,10.130702181091308,14.864768096923829Q9.56545218109131,14.864768096923829,9.17357218109131,14.651018096923828C8.912322181091309,14.508518096923828,8.713612181091309,14.309018096923829,8.577452181091308,14.052518096923828Q8.373202181091308,13.667768096923828,8.373202181091308,13.150018096923828Q8.373202181091308,12.618018096923828,8.584572181091309,12.228518096923828Q8.795952181091309,11.839018096923828,9.19495218109131,11.625268096923827Q9.593952181091309,11.411518096923828,10.154452181091308,11.411518096923828Q10.410952181091307,11.411518098786479,10.66745218109131,11.468518096923829Q10.923952181091309,11.525518096923829,11.161452181091308,11.658518096923828Q11.28970218109131,11.729768096923829,11.315822181091308,11.848518096923828C11.33324218109131,11.927685096923828,11.324532181091309,12.004476096923828,11.28970218109131,12.078893096923828C11.254862181091308,12.153310096923828,11.201822181091309,12.207143096923827,11.13057218109131,12.240393096923828Q11.02370218109131,12.290268096923828,10.87645218109131,12.219018096923827Q10.558202181091309,12.052768096923828,10.15920218109131,12.052768096923828Q9.65095218109131,12.052768096923828,9.39682218109131,12.335393096923829C9.227402181091309,12.523808096923828,9.142702181091309,12.795348096923828,9.142702181091309,13.150018096923828Q9.142702181091309,13.686768096923828,9.401572181091309,13.962268096923829C9.574152181091309,14.145938096923828,9.829862181091308,14.237768096923828,10.168702181091309,14.237768096923828Q10.439452181091308,14.237768096923828,10.738702181091309,14.152268096923828L10.738702181091309,13.496768096923828L10.311202181091309,13.496768096923828Q10.016702181091308,13.496768096923828,10.016702181091308,13.230768096923828Q10.016702181091308,12.964768096923828,10.311202181091309,12.964768096923828L11.056952181091308,12.964768096923828C11.250112181091309,12.964768096923828,11.346702181091308,13.062938096923828,11.346702181091308,13.259268096923828L11.346702181091308,14.361268096923828Q11.346702181091308,14.484768096923828,11.296822181091308,14.570268096923828C11.263572181091309,14.627268096923828,11.210532181091308,14.668438096923829,11.137702181091308,14.693768096923828C10.995202181091308,14.744438096923828,10.835282181091308,14.785598096923827,10.657952181091309,14.817268096923828ZM3.4854621810913087,14.850528096923828L3.6517121810913085,14.841028096923829Q4.6492121810913085,14.779278096923829,4.6492121810913085,13.834028096923827L4.6492121810913085,11.796274096923828Q4.6492121810913085,11.421024346923828,4.278712181091309,11.421024326923828Q4.102962181091309,11.421024326923828,4.007962181091308,11.518399096923828Q3.9129621810913084,11.615774096923829,3.9129621810913084,11.796274096923828L3.9129621810913084,13.843528096923828Q3.9129621810913084,14.218778096923828,3.5329621810913086,14.242528096923827L3.3952121810913085,14.252028096923828C3.3128791810913087,14.258358096923828,3.2503371810913086,14.288438096923828,3.207587181091309,14.342278096923827C3.1648371810913085,14.396108096923829,3.1434621810913086,14.459438096923828,3.1434621810913086,14.532278096923829C3.1434621810913086,14.627278096923828,3.1735454810913084,14.704858096923829,3.2337121810913088,14.765028096923828C3.2938791810913086,14.825188096923828,3.3777951810913085,14.853688096923829,3.4854621810913087,14.850528096923828ZM5.962622181091309,14.755528096923829Q5.870002181091309,14.85527809692383,5.689502181091308,14.85527809692383Q5.509002181091309,14.85527809692383,5.414002181091309,14.755528096923829Q5.319002181091308,14.655778096923829,5.319002181091308,14.475278096923828L5.319002181091308,11.839029096923827Q5.319002181091308,11.463779496923829,5.694252181091309,11.463779496923829L6.848502181091309,11.463779496923829Q7.409002181091308,11.463779496923829,7.7130021810913085,11.746404096923829Q8.017002181091309,12.029029096923828,8.017002181091309,12.532528096923828Q8.017002181091309,13.036028096923829,7.7130021810913085,13.321028096923829Q7.409002181091308,13.60602809692383,6.848502181091309,13.60602809692383L6.0552521810913085,13.60602809692383L6.0552521810913085,14.475278096923828Q6.0552521810913085,14.655778096923829,5.962622181091309,14.755528096923829ZM6.055082181091309,13.036018096923828L6.724832181091308,13.036018096923828Q7.309082181091308,13.036018096923828,7.309082181091308,12.532518096923829Q7.309082181091308,12.038516096923829,6.724832181091308,12.038516096923829L6.055082181091309,12.038516096923829L6.055082181091309,13.036018096923828Z" fill-rule="evenodd" fill="#FFFFFF" fill-opacity="1"/></g></g></svg>