<svg xmlns="http://www.w3.org/2000/svg" xmlns:xlink="http://www.w3.org/1999/xlink" fill="none" version="1.1" width="20" height="20" viewBox="0 0 20 20"><g><g><path d="M3.75,1.25L12.505,1.25L17.5,6.2539L17.5,17.5C17.5,18.1904,16.9404,18.75,16.25,18.75L3.75,18.75C3.059644,18.75,2.5,18.1904,2.5,17.5L2.5,2.5C2.4999999999999996,1.809644,3.059644,1.25,3.75,1.25Z" fill-rule="evenodd" fill="#E7ECEF" fill-opacity="1"/></g><g style="opacity:0.15418100357055664;"><path d="M12.5,1.25L17.5,6.25L13.5,6.25C12.947715,6.25,12.5,5.80228,12.5,5.25L12.5,1.25Z" fill-rule="evenodd" fill="#000000" fill-opacity="1"/></g><g><rect x="1.25" y="10" width="12.5" height="6.25" rx="0.5" fill="#F64E60" fill-opacity="1"/></g><g><path d="M3.3764181237640383,14.85522413635254Q3.556918123764038,14.85522413635254,3.649543123764038,14.75547413635254Q3.742168123764038,14.65572413635254,3.742168123764038,14.475224136352539L3.742168123764038,13.60597413635254L4.535414123764038,13.60597413635254Q5.095914123764038,13.60597413635254,5.399914123764038,13.32097413635254Q5.703914123764038,13.03597413635254,5.703914123764038,12.532474136352539Q5.703914123764038,12.02897413635254,5.399914123764038,11.746349136352539Q5.095914123764038,11.463724136352539,4.535414123764038,11.463724136352539L3.381168123764038,11.463724136352539Q3.005918286764038,11.463724136352539,3.005918264764038,11.838974136352538L3.005918264764038,14.475224136352539Q3.005918264764038,14.65572413635254,3.100918223764038,14.75547413635254Q3.195918123764038,14.85522413635254,3.3764181237640383,14.85522413635254ZM8.795974123764038,14.375474136352539Q8.325724123764038,14.812474136352538,7.470724123764038,14.812474136352538L6.544474123764038,14.812474136352538Q6.159724123764038,14.812474136352538,6.159724123764038,14.42772413635254L6.159724123764038,11.84847413635254Q6.159724123764038,11.463724136352539,6.544474123764038,11.463724136352539L7.470724123764038,11.463724136352539Q8.325724123764038,11.463724136352539,8.795974123764038,11.89834913635254Q9.266224123764038,12.332974136352538,9.266224123764038,13.13572413635254Q9.266224123764038,13.93847413635254,8.795974123764038,14.375474136352539ZM10.572494123764038,14.465724136352538Q10.572494123764038,14.85522413635254,10.211494123764037,14.85522413635254C10.091154123764039,14.85522413635254,9.998534123764038,14.821974136352539,9.933614123764038,14.75547413635254Q9.836244123764038,14.65572413635254,9.836244123764038,14.465724136352538L9.836244123764038,11.84847413635254Q9.836244123764038,11.463724136352539,10.220994123764038,11.463724136352539L11.845494123764038,11.463724136352539Q12.135244123764037,11.463724136352539,12.135244123764037,11.74872413635254Q12.135244123764037,12.038474136352539,11.845494123764038,12.038474136352539L10.572494123764038,12.038474136352539L10.572494123764038,12.855474136352539L11.740994123764038,12.855474136352539C11.937324123764038,12.855474136352539,12.035494123764039,12.95047413635254,12.035494123764039,13.14047413635254Q12.035494123764039,13.282994136352539,11.964244123764038,13.35541413635254Q11.890634123764038,13.430224136352539,11.740994123764038,13.430224136352539L10.572494123764038,13.430224136352539L10.572494123764038,14.465724136352538ZM4.411754123764038,13.03596413635254L3.742002123764038,13.03596413635254L3.742002123764038,12.038460136352539L4.411754123764038,12.038460136352539Q4.996004123764038,12.038460136352539,4.996004123764038,12.532464136352539Q4.996004123764038,13.03596413635254,4.411754123764038,13.03596413635254ZM7.4280541237640385,14.209244136352538L6.8960541237640385,14.209244136352538L6.8960541237640385,12.066995136352539L7.4280541237640385,12.066995136352539Q8.496804123764038,12.066995136352539,8.496804123764038,13.135744136352539Q8.496804123764038,13.674874136352539,8.227244123764038,13.94324413635254Q7.960064123764038,14.209244136352538,7.4280541237640385,14.209244136352538Z" fill-rule="evenodd" fill="#FFFFFF" fill-opacity="1"/></g></g></svg>