<svg xmlns="http://www.w3.org/2000/svg" xmlns:xlink="http://www.w3.org/1999/xlink" fill="none" version="1.1" width="20" height="20" viewBox="0 0 20 20"><g><g><path d="M3.75,1.25L12.505,1.25L17.5,6.2539L17.5,17.5C17.5,18.1904,16.9404,18.75,16.25,18.75L3.75,18.75C3.059644,18.75,2.5,18.1904,2.5,17.5L2.5,2.5C2.4999999999999996,1.809644,3.059644,1.25,3.75,1.25Z" fill-rule="evenodd" fill="#E7ECEF" fill-opacity="1"/></g><g style="opacity:0.15418100357055664;"><path d="M12.5,1.25L17.5,6.25L13.5,6.25C12.947715,6.25,12.5,5.80228,12.5,5.25L12.5,1.25Z" fill-rule="evenodd" fill="#000000" fill-opacity="1"/></g><g><rect x="1.25" y="10" width="12.5" height="6.25" rx="0.5" fill="#84A4F6" fill-opacity="1"/></g><g><path d="M7.65123506942749,14.864766544189454C7.983735069427491,14.864766544189454,8.274275069427489,14.792726544189453,8.52285506942749,14.648646544189454Q8.895735069427491,14.432516544189454,9.10236506942749,14.043016544189452Q9.30898506942749,13.653516544189454,9.30898506942749,13.131016544189453Q9.30898506942749,12.613266544189454,9.10236506942749,12.226143544189453Q8.895735069427491,11.839018544189454,8.52285506942749,11.625268544189453C8.274275069427489,11.482768144189453,7.983735069427491,11.411518096889454,7.65123506942749,11.411518096889454C7.318735069427491,11.411518096889454,7.02898506942749,11.482768144189453,6.78198506942749,11.625268544189453C6.53498506942749,11.767768544189453,6.34261506942749,11.968059544189453,6.20486506942749,12.226143544189453Q5.998235069427491,12.613266544189454,5.998235069427491,13.135766544189453Q5.998235069427491,13.658266544189454,6.20486506942749,14.045396544189453C6.34261506942749,14.303476544189452,6.5357750694274905,14.504556544189454,6.784365069427491,14.648646544189454C7.03294506942749,14.792726544189453,7.3219050694274905,14.864766544189454,7.65123506942749,14.864766544189454ZM12.00936506942749,14.798266544189453C11.839955069427491,14.842596544189453,11.67132506942749,14.864766544189454,11.50349506942749,14.864766544189454Q10.96198506942749,14.864766544189454,10.57724506942749,14.651016544189453C10.32074506942749,14.508516544189453,10.12361506942749,14.308226544189452,9.98586506942749,14.050146544189452C9.84811506942749,13.792056544189453,9.779245069427489,13.487266544189453,9.779245069427489,13.135766544189453Q9.779245069427489,12.613266544189454,9.98586506942749,12.226143544189453C10.12361506942749,11.968059544189453,10.32074506942749,11.767768544189453,10.57724506942749,11.625268544189453C10.83374506942749,11.482768144189453,11.14249506942749,11.411518096889454,11.50349506942749,11.411518096889454C11.66182506942749,11.411518096889454,11.82253506942749,11.432101444189453,11.98561506942749,11.473268144189452Q12.23024506942749,11.535018544189453,12.41074506942749,11.639518544189453C12.508875069427491,11.696518544189454,12.569075069427491,11.767768544189453,12.59127506942749,11.853268544189453C12.61337506942749,11.938768544189454,12.60627506942749,12.019518544189452,12.569875069427491,12.095518544189453C12.53347506942749,12.171518544189453,12.47727506942749,12.225351544189452,12.40124506942749,12.257018544189453C12.32524506942749,12.288684544189453,12.23974506942749,12.277601544189453,12.14474506942749,12.223768544189452C12.049745069427491,12.166768544189454,11.94999506942749,12.125601544189454,11.845495069427491,12.100268544189452C11.74099506942749,12.074934544189453,11.63490506942749,12.062268544189454,11.52724506942749,12.062268544189454C11.207405069427491,12.062268544189454,10.965945069427491,12.154892544189453,10.80286506942749,12.340143544189454C10.63978506942749,12.525396544189453,10.55824506942749,12.790596544189453,10.55824506942749,13.135766544189453Q10.55824506942749,13.653516544189454,10.80286506942749,13.933766544189453C10.965945069427491,14.120596544189453,11.207405069427491,14.214016544189453,11.52724506942749,14.214016544189453C11.628575069427491,14.214016544189453,11.73228506942749,14.201346544189454,11.838365069427491,14.176016544189453C11.94444506942749,14.150686544189453,12.04657506942749,14.111106544189454,12.14474506942749,14.057266544189453C12.24607506942749,14.003436544189453,12.33474506942749,13.991556544189454,12.41074506942749,14.021646544189453C12.486775069427491,14.051726544189453,12.54297506942749,14.102396544189453,12.57937506942749,14.173646544189452C12.61577506942749,14.244896544189453,12.62447506942749,14.322476544189453,12.60547506942749,14.406396544189453C12.58647506942749,14.490306544189453,12.53267506942749,14.559186544189453,12.44397506942749,14.613016544189453C12.32365506942749,14.692186544189454,12.17878506942749,14.753936544189454,12.00936506942749,14.798266544189453ZM3.7323350694274904,14.812526544189453Q4.587335069427491,14.812526544189453,5.057585069427491,14.375526544189453Q5.52783506942749,13.938526544189454,5.52783506942749,13.135776544189453Q5.52783506942749,12.333029544189452,5.057585069427491,11.898404544189454Q4.587335069427491,11.463779444189454,3.7323350694274904,11.463779444189454L2.8060810694274902,11.463779444189454Q2.42133092842749,11.463779444189454,2.42133092842749,11.848529544189454L2.42133092842749,14.427776544189452Q2.42133092842749,14.812526544189453,2.8060810694274902,14.812526544189453L3.7323350694274904,14.812526544189453ZM7.00289506942749,13.945626544189453Q7.23801506942749,14.237756544189454,7.65126506942749,14.237756544189454C7.92993506942749,14.237756544189454,8.14764506942749,14.140376544189454,8.304395069427489,13.945626544189453Q8.539515069427491,13.653496544189453,8.539515069427491,13.135756544189453Q8.539515069427491,12.613256544189452,8.30676506942749,12.325876544189454Q8.07401506942749,12.038501544189453,7.65126506942749,12.038501544189453Q7.23801506942749,12.038501544189453,7.00289506942749,12.325876544189454Q6.76776506942749,12.613256544189452,6.76776506942749,13.135756544189453Q6.76776506942749,13.653496544189453,7.00289506942749,13.945626544189453ZM3.6896550694274906,14.209286544189453L3.15765906942749,14.209286544189453L3.15765906942749,12.067035544189453L3.6896550694274906,12.067035544189453Q4.75840506942749,12.067035544189453,4.75840506942749,13.135786544189454Q4.75840506942749,13.674916544189454,4.488845069427491,13.943286544189453Q4.22166506942749,14.209286544189453,3.6896550694274906,14.209286544189453Z" fill-rule="evenodd" fill="#FFFFFF" fill-opacity="1"/></g></g></svg>