<svg xmlns="http://www.w3.org/2000/svg" xmlns:xlink="http://www.w3.org/1999/xlink" fill="none" version="1.1" width="20" height="20" viewBox="0 0 20 20"><g><g><path d="M3.75,1.25L12.505,1.25L17.5,6.2539L17.5,17.5C17.5,18.1904,16.9404,18.75,16.25,18.75L3.75,18.75C3.059644,18.75,2.5,18.1904,2.5,17.5L2.5,2.5C2.4999999999999996,1.809644,3.059644,1.25,3.75,1.25Z" fill-rule="evenodd" fill="#E7ECEF" fill-opacity="1"/></g><g style="opacity:0.15418100357055664;"><path d="M12.5,1.25L17.5,6.25L13.5,6.25C12.947715,6.25,12.5,5.80228,12.5,5.25L12.5,1.25Z" fill-rule="evenodd" fill="#000000" fill-opacity="1"/></g><g><rect x="1.25" y="10" width="12.5" height="6.25" rx="0.5" fill="#F29965" fill-opacity="1"/></g><g><path d="M11.562851115570068,14.817268096923828C11.385521115570068,14.848938096923828,11.209771115570069,14.864768096923829,11.035601115570069,14.864768096923829Q10.470351115570068,14.864768096923829,10.078471115570068,14.651018096923828C9.817221115570067,14.508518096923828,9.618521115570069,14.309018096923829,9.482351115570069,14.052518096923828Q9.278101115570069,13.667768096923828,9.278101115570069,13.150018096923828Q9.278101115570069,12.618018096923828,9.489471115570069,12.228518096923828Q9.700851115570067,11.839018096923828,10.099851115570068,11.625268096923827Q10.49885111557007,11.411518096923828,11.059351115570069,11.411518096923828C11.230351115570068,11.411518096923828,11.401351115570069,11.430518096923828,11.572351115570068,11.468518096923829C11.743351115570068,11.506518096923829,11.908021115570069,11.569851096923829,12.066351115570068,11.658518096923828Q12.194601115570068,11.729768096923829,12.220721115570068,11.848518096923828C12.238141115570068,11.927685096923828,12.229431115570069,12.004476096923828,12.194601115570068,12.078893096923828C12.159771115570068,12.153310096923828,12.106721115570068,12.207143096923827,12.035471115570068,12.240393096923828Q11.928601115570068,12.290268096923828,11.781351115570068,12.219018096923827Q11.463101115570069,12.052768096923828,11.064101115570068,12.052768096923828Q10.555851115570068,12.052768096923828,10.301721115570068,12.335393096923829C10.132311115570069,12.523808096923828,10.047601115570068,12.795348096923828,10.047601115570068,13.150018096923828Q10.047601115570068,13.686768096923828,10.30647111557007,13.962268096923829C10.479061115570069,14.145938096923828,10.734771115570068,14.237768096923828,11.073601115570069,14.237768096923828C11.254101115570068,14.237768096923828,11.444101115570069,14.209268096923829,11.643601115570068,14.152268096923828L11.643601115570068,13.496768096923828L11.21610111557007,13.496768096923828Q10.921601115570068,13.496768096923828,10.921601115570068,13.230768096923828Q10.921601115570068,12.964768096923828,11.21610111557007,12.964768096923828L11.961851115570068,12.964768096923828C12.155021115570069,12.964768096923828,12.251601115570068,13.062938096923828,12.251601115570068,13.259268096923828L12.251601115570068,14.361268096923828Q12.251601115570068,14.484768096923828,12.201721115570068,14.570268096923828C12.168471115570068,14.627268096923828,12.115431115570068,14.668438096923829,12.042601115570069,14.693768096923828C11.900101115570068,14.744438096923828,11.740181115570069,14.785598096923827,11.562851115570068,14.817268096923828ZM8.404051115570068,14.85527809692383C8.495881115570068,14.85527809692383,8.568721115570067,14.824398096923828,8.622551115570069,14.762648096923828C8.676381115570068,14.700898096923828,8.703301115570069,14.617778096923828,8.703301115570069,14.513278096923829L8.703301115570069,11.772524096923828Q8.703301115570069,11.421024336923828,8.361301115570068,11.421024326923828Q8.01930111557007,11.421024326923828,8.01930111557007,11.772524096923828L8.01930111557007,13.596528096923828L6.480301115570068,11.634774096923827C6.420131115570069,11.558774096923829,6.366301115570068,11.504149296923828,6.318801115570068,11.470899296923829C6.271301115570068,11.437649296923828,6.2063811155700686,11.421024326923828,6.124051115570069,11.421024326923828C6.025881115570068,11.421024326923828,5.947511115570068,11.452690996923828,5.888921115570069,11.516024096923829Q5.801051115570068,11.611024096923828,5.801051115570068,11.791524096923828L5.801051115570068,14.499028096923828Q5.801051115570068,14.85527809692383,6.143051115570069,14.85527809692383Q6.4850511155700685,14.85527809692383,6.4850511155700685,14.499028096923828L6.4850511155700685,12.675028096923828L8.024051115570067,14.636778096923829C8.084221115570069,14.712778096923827,8.140421115570067,14.768188096923828,8.192671115570068,14.803028096923828Q8.271051115570067,14.85527809692383,8.404051115570068,14.85527809692383ZM3.2908661155700685,14.755528096923829Q3.1982411155700685,14.85527809692383,3.017741115570068,14.85527809692383Q2.8372411155700683,14.85527809692383,2.7422411155700686,14.755528096923829Q2.6472411155700684,14.655778096923829,2.6472411155700684,14.475278096923828L2.6472411155700684,11.839029096923827Q2.6472411155700684,11.463779496923829,3.022491115570068,11.463779496923829L4.176741115570069,11.463779496923829Q4.737241115570068,11.463779496923829,5.0412411155700685,11.746404096923829Q5.345241115570069,12.029029096923828,5.345241115570069,12.532528096923828Q5.345241115570069,13.036028096923829,5.0412411155700685,13.321028096923829Q4.737241115570068,13.60602809692383,4.176741115570069,13.60602809692383L3.3834911155700684,13.60602809692383L3.3834911155700684,14.475278096923828Q3.3834911155700684,14.655778096923829,3.2908661155700685,14.755528096923829ZM3.3833251155700683,13.036018096923828L4.053071115570068,13.036018096923828Q4.637321115570068,13.036018096923828,4.637321115570068,12.532518096923829Q4.637321115570068,12.038516096923829,4.053071115570068,12.038516096923829L3.3833251155700683,12.038516096923829L3.3833251155700683,13.036018096923828Z" fill-rule="evenodd" fill="#FFFFFF" fill-opacity="1"/></g></g></svg>