<svg xmlns="http://www.w3.org/2000/svg" xmlns:xlink="http://www.w3.org/1999/xlink" fill="none" version="1.1" width="24" height="24" viewBox="0 0 24 24"><g><g><g><g><path d="M7.33333,10.666656494140625C6.597005,10.666656494140625,6,11.263621494140626,6,11.999986494140625C6,12.736356494140626,6.597005,13.333326494140625,7.33333,13.333326494140625C8.069659999999999,13.333326494140625,8.66667,12.736356494140626,8.66667,11.999986494140625C8.66667,11.263621494140626,8.069659999999999,10.666656494140625,7.33333,10.666656494140625ZM10.66667,11.999986494140625C10.66667,11.263621494140626,11.263670000000001,10.666656494140625,12,10.666656494140625C12.736329999999999,10.666656494140625,13.33333,11.263621494140626,13.33333,11.999986494140625C13.33333,12.736356494140626,12.736329999999999,13.333326494140625,12,13.333326494140625C11.263670000000001,13.333326494140625,10.66667,12.736356494140626,10.66667,11.999986494140625ZM16.6667,10.666656494140625C15.93034,10.666656494140625,15.33333,11.263621494140626,15.33333,11.999986494140625C15.33333,12.736356494140626,15.93034,13.333326494140625,16.6667,13.333326494140625C17.403,13.333326494140625,18,12.736356494140626,18,11.999986494140625C18,11.263621494140626,17.403,10.666656494140625,16.6667,10.666656494140625Z" fill-rule="evenodd" fill="#4B4B4B" fill-opacity="1"/></g></g></g></g></svg>