<svg xmlns="http://www.w3.org/2000/svg" xmlns:xlink="http://www.w3.org/1999/xlink" fill="none" version="1.1" width="16" height="16" viewBox="0 0 16 16"><g><g><g style="opacity:0.20000000298023224;"></g><g><path d="M9.9285059765625,1.1907959765625Q8.6892459765625,0.6666259765625,7.3332959765625,0.6666259765625Q5.9773359765625,0.6666259765625,4.7380759765625,1.1907959765625Q3.5416259765625,1.6968559765625,2.6192659765624997,2.6192659765624997Q1.6968959765625,3.5416259765625,1.1908769765625,4.7381159765625Q0.6666259765625,5.9774159765625,0.6666259765625,7.3332959765625Q0.6666259765625,8.6891659765625,1.1908769765625,9.9284659765625Q1.6968959765625,11.1249259765625,2.6192659765624997,12.0473259765625Q3.5416259765625,12.9697259765625,4.7380759765625,13.4758259765625Q5.9773359765625,13.9999259765625,7.3332959765625,13.9999259765625Q8.6892459765625,13.9999259765625,9.9285059765625,13.4758259765625Q10.8162259765625,13.1003259765625,11.5528259765625,12.4957259765625L14.1952259765625,15.1380259765625C14.3202259765625,15.2630259765625,14.4898259765625,15.3333259765625,14.6666259765625,15.3333259765625C14.8434259765625,15.3333259765625,15.0130259765625,15.2630259765625,15.1380259765625,15.1380259765625C15.2630259765625,15.0130259765625,15.3333259765625,14.8434259765625,15.3333259765625,14.6666259765625C15.3333259765625,14.4898259765625,15.2630259765625,14.3202259765625,15.1380259765625,14.1952259765625L12.4957259765625,11.5529259765625Q13.1004259765625,10.8161259765625,13.4757259765625,9.9284659765625Q13.9999259765625,8.6891659765625,13.9999259765625,7.3332959765625Q13.9999259765625,5.9774159765625,13.4757259765625,4.7381159765625Q12.9697259765625,3.5416259765625,12.0473259765625,2.6192659765624997Q11.1249259765625,1.6968559765625,9.9285059765625,1.1907959765625ZM3.5621359765625,3.5620559765625Q5.1241459765625,1.9999559765625,7.3332959765625,1.9999559765625Q9.5424359765625,1.9999559765625,11.1044259765625,3.5620559765625Q12.6666259765625,5.1241459765625,12.6666259765625,7.3332959765625Q12.6666259765625,9.5424359765625,11.1044259765625,11.1045259765625Q9.5424359765625,12.6666259765625,7.3332959765625,12.6666259765625Q5.1241459765625,12.6666259765625,3.5621359765625,11.1045259765625Q1.9999559765625,9.5424359765625,1.9999559765625,7.3332959765625Q1.9999559765625,5.1241459765625,3.5621359765625,3.5620559765625Z" fill-rule="evenodd" fill="#4B4B4B" fill-opacity="1"/></g></g></g></svg>