<svg xmlns="http://www.w3.org/2000/svg" xmlns:xlink="http://www.w3.org/1999/xlink" fill="none" version="1.1" width="20" height="20" viewBox="0 0 20 20"><g><g><rect x="0" y="0" width="20" height="20" rx="0" fill="#FFFFFF" fill-opacity="0.009999999776482582"/></g><g><path d="M17.169247588157653,9.421236748275756C17.169247588157653,4.924316748275757,13.523747588157654,1.278783560275757,9.026837588157655,1.278783560275757C4.529917588157653,1.278783560275757,0.8843930961576538,4.924306748275757,0.8843930961576538,9.421236748275756C0.8843930961576538,13.918076748275757,4.529927588157654,17.563676748275757,9.026837588157655,17.563676748275757L9.404427588157654,17.554976748275756L9.778827588157654,17.529276748275755C11.517847588157654,17.369676748275758,13.137947588157655,16.659776748275757,14.429247588157654,15.513476748275757L14.612047588157655,15.341876748275757L17.760347588157654,18.49137674827576L17.879247588157654,18.592876748275756C18.046747588157654,18.714176748275758,18.247247588157652,18.778776748275757,18.453947588157654,18.778776748275757C18.712247588157656,18.778776748275757,18.961047588157655,18.677876748275757,19.147447588157654,18.49137674827576L19.242447588157653,18.381476748275755L19.318447588157653,18.261776748275757C19.517947588157654,17.890476748275756,19.460947588157655,17.417576748275756,19.147447588157654,17.10427674827576L15.872447588157653,13.828676748275758L16.014047588157652,13.604176748275757C16.765147588157653,12.352576748275757,17.169247588157653,10.916816748275757,17.169247588157653,9.421236748275756ZM2.846067588157654,9.421186748275757C2.846067588157654,6.013286748275757,5.618757588157654,3.240586748275757,9.026657588157654,3.240586748275757C12.434547588157654,3.240586748275757,15.207247588157653,6.013306748275757,15.207247588157653,9.421186748275757C15.207247588157653,12.829076748275757,12.434547588157654,15.601776748275757,9.026657588157654,15.601776748275757C5.618767588157654,15.601776748275757,2.846067588157654,12.829076748275757,2.846067588157654,9.421186748275757Z" fill-rule="evenodd" fill="#FFFFFF" fill-opacity="1"/></g></g></svg>