<svg xmlns="http://www.w3.org/2000/svg" xmlns:xlink="http://www.w3.org/1999/xlink" fill="none" version="1.1" width="16" height="16" viewBox="0 0 16 16"><g><g><path d="M2.3431509536743165,2.34315Q9.5367431640625e-7,4.68629,9.5367431640625e-7,8Q2.6009331640625e-7,11.3137,2.3431509536743165,13.6569Q4.686290953674316,16,8.000000953674316,16Q11.313700953674317,16,13.656900953674317,13.6569Q16.000000953674316,11.3137,16.000000953674316,8Q16.000000953674316,7.20582,15.846500953674317,6.43309Q15.034600953674316,2.34659,11.208800953674317,0.669715Q9.680840953674316,0,8.000000953674316,0Q4.686290953674316,0,2.3431509536743165,2.34315ZM3.3716609536743163,12.6283Q1.4545409536743164,10.7112,1.4545409536743164,8Q1.4545509536743164,5.28878,3.3716609536743163,3.37166Q5.288780953674316,1.45455,8.000000953674316,1.45455Q9.376060953674317,1.45455,10.624900953674317,2.00191Q13.755700953674316,3.37421,14.419800953674317,6.71654Q14.545500953674317,7.34891,14.545500953674317,8Q14.545500953674317,10.7112,12.628300953674316,12.6283Q10.711200953674316,14.5455,8.000000953674316,14.5455Q5.288780953674316,14.5455,3.3716609536743163,12.6283ZM7.2727309536743165,3.63636C7.2727309536743165,3.2347,7.598340953674317,2.90909,8.000000953674316,2.90909C8.401660953674316,2.90909,8.727270953674317,3.2347,8.727270953674317,3.63636L8.727270953674317,7.55052L11.234100953674316,8.80392L11.234300953674316,8.80405C11.480700953674317,8.92725,11.636400953674316,9.17908,11.636400953674316,9.45455C11.636400953674316,9.85621,11.310800953674317,10.1818,10.909100953674317,10.1818C10.796200953674317,10.1818,10.684800953674316,10.1555,10.583800953674317,10.105L7.674750953674317,8.65049C7.4283709536743165,8.5273,7.2727309536743165,8.27547,7.2727309536743165,8L7.2727309536743165,3.63636Z" fill-rule="evenodd" fill="#4B4B4B" fill-opacity="1"/></g></g></svg>