<svg xmlns="http://www.w3.org/2000/svg" xmlns:xlink="http://www.w3.org/1999/xlink" fill="none" version="1.1" width="16" height="16" viewBox="0 0 16 16"><g><g><path d="M1,2L15,2C15.5523,2,16,2.447715,16,3L16,13C16,13.5523,15.5523,14,15,14L1,14C0.447715,14,6.76354e-17,13.5523,0,13L0,3C-6.76354e-17,2.447715,0.447715,2,1,2Z" fill="#BADAFB" fill-opacity="1"/></g><g><path d="M1.0000000000001439,1L6.381970000000144,1C6.760740000000144,1.0000000000000002,7.107000000000144,1.214002,7.276390000000144,1.552786L8.276390000000143,3.55279C8.523380000000143,4.04676,8.323160000000144,4.64744,7.829180000000144,4.89443C7.690320000000144,4.96385,7.537210000000144,5,7.381970000000144,5L1.0000000000001439,5C0.44771500000014386,5,1.439525393914203e-13,4.55228,1.438849039914203e-13,4L1.438849039914203e-13,2C1.4381726859142028e-13,1.447715,0.44771500000014386,1,1.0000000000001439,1Z" fill-rule="evenodd" fill="#5CA3EE" fill-opacity="1"/></g><g><path d="M1,3L15,3C15.5523,3,16,3.447715,16,4L16,14C16,14.5523,15.5523,15,15,15L1,15C0.447715,15,6.76354e-17,14.5523,0,14L0,4C-6.76354e-17,3.447715,0.447715,3,1,3Z" fill="#79B7F8" fill-opacity="1"/></g></g></svg>