<svg xmlns="http://www.w3.org/2000/svg" xmlns:xlink="http://www.w3.org/1999/xlink" fill="none" version="1.1" width="20" height="20" viewBox="0 0 20 20"><g><g style="opacity:0.20000000298023224;"><path d="M5.829748046875,8.333251953125L4.166748046875,8.333251953125C2.786128046875,8.333251953125,1.666748046875,9.452531953125,1.666748046875,10.833251953125L1.666748046875,15.833251953125C1.666748046875,17.213971953125,2.786128046875,18.333251953125,4.166748046875,18.333251953125L5.829748046875,18.333251953125C6.289958046875,18.333251953125,6.663088046875,17.960121953125,6.663088046875,17.499921953125L6.663088046875,9.166584953125C6.663088046875,8.706379953125,6.289958046875,8.333251953125,5.829748046875,8.333251953125Z" fill="#2C54D1" fill-opacity="1"/></g><g><path d="M5.829748046875,18.333448046875L4.164918046875,18.333448046875Q3.130168046875,18.333448046875,2.398356046875,17.601748046875002Q1.666748046875,16.869948046875002,1.666748046875,15.835248046875L1.666748046875,10.831588046875Q1.666748046875,9.796728046875,2.398356046875,9.065128046875Q3.130168046875,8.333418046875,4.164918046875,8.333418046875L5.320108046875,8.333418046875L8.500648046875,2.120341046875C8.643268046875,1.841919046875,8.929728046874999,1.666748046875,9.242428046875,1.666748046875Q10.518878046875,1.666748046875,11.421178046875,2.570170046875Q12.323248046875,3.4731880468750003,12.323248046875,4.750038046875L12.323248046875,6.916688046875L15.984948046875,6.916688046875Q17.053748046875,6.904478046875,17.761548046875,7.719098046875Q18.468748046875,8.533308046875,18.307148046875,9.599898046875001L17.273248046875,16.351048046875Q17.142648046875,17.212448046875,16.478348046875,17.777548046875Q15.813848046875,18.343048046875,14.941648046875,18.333248046875L5.829748046875,18.333448046875ZM4.996418046875,10.000078046875L4.164918046875,10.000078046875Q3.820478046875,10.000078046875,3.5769480468749997,10.243608046875Q3.333418046875,10.487138046875,3.333418046875,10.831588046875L3.333418046875,15.835248046875Q3.333418046875,16.179648046875002,3.5769480468749997,16.423248046875003Q3.820478046875,16.666748046875,4.164918046875,16.666748046875L4.996418046875,16.666748046875L4.996418046875,10.000078046875ZM6.663088046875,16.666748046875L6.663088046875,9.367658046875L9.713008046875,3.4096080468750003Q10.005578046875,3.511228046875,10.241988046875,3.748048046875Q10.656618046875,4.162988046875,10.656618046875,4.750038046875L10.656618046875,7.750018046875C10.656618046875,8.210228046874999,11.029748046875,8.583358046875,11.489948046875,8.583358046875L15.984948046875,8.583358046875Q16.301548046875,8.579798046875,16.503348046875,8.812238046874999Q16.705648046874998,9.044878046874999,16.659248046875,9.350258046875L15.625648046875,16.098848046875Q15.588048046875,16.346848046875,15.398248046875,16.508248046875Q15.208848046875,16.669448046875,14.960448046875,16.666748046875L6.663088046875,16.666748046875Z" fill-rule="evenodd" fill="#2C54D1" fill-opacity="1"/></g></g></svg>