<svg xmlns="http://www.w3.org/2000/svg" xmlns:xlink="http://www.w3.org/1999/xlink" fill="none" version="1.1" width="12" height="12" viewBox="0 0 12 12"><g><g style="opacity:0.20000000298023224;"><path d="M11.5,6Q11.5,6.13502,11.4934,6.26987Q11.4867,6.40473,11.4735,6.53909Q11.4603,6.67346,11.4405,6.80702Q11.4207,6.94057,11.3943,7.073Q11.368,7.20542,11.3352,7.33639Q11.3024,7.46736,11.2632,7.59657Q11.224,7.72577,11.1785,7.85289Q11.133,7.98002,11.0813,8.104759999999999Q11.0297,8.2295,10.9719,8.35155Q10.9142,8.47361,10.8506,8.59268Q10.7869,8.71176,10.7175,8.82756Q10.6481,8.94337,10.5731,9.05564Q10.49807,9.1679,10.41764,9.27635Q10.33721,9.38479,10.25156,9.48916Q10.1659,9.59353,10.07523,9.69357Q9.98456,9.79361,9.88909,9.88909Q9.79361,9.98456,9.69357,10.07523Q9.59353,10.1659,9.48916,10.25156Q9.38479,10.33721,9.27635,10.41764Q9.1679,10.49807,9.05564,10.5731Q8.94337,10.6481,8.82756,10.7175Q8.71176,10.7869,8.59268,10.8506Q8.47361,10.9142,8.35155,10.9719Q8.2295,11.0297,8.104759999999999,11.0813Q7.98002,11.133,7.85289,11.1785Q7.72577,11.224,7.59657,11.2632Q7.46736,11.3024,7.33639,11.3352Q7.20542,11.368,7.073,11.3943Q6.94057,11.4207,6.80702,11.4405Q6.67346,11.4603,6.53909,11.4735Q6.40473,11.4867,6.26987,11.4934Q6.13502,11.5,6,11.5Q5.86498,11.5,5.73013,11.4934Q5.59527,11.4867,5.46091,11.4735Q5.32654,11.4603,5.19298,11.4405Q5.05943,11.4207,4.927,11.3943Q4.79458,11.368,4.66361,11.3352Q4.53264,11.3024,4.40343,11.2632Q4.27423,11.224,4.14711,11.1785Q4.01998,11.133,3.89524,11.0813Q3.7705,11.0297,3.64845,10.9719Q3.52639,10.9142,3.40732,10.8506Q3.28824,10.7869,3.17243,10.7175Q3.05663,10.6481,2.94436,10.5731Q2.8321,10.49807,2.72365,10.41764Q2.61521,10.33721,2.51084,10.25156Q2.40647,10.1659,2.3064299999999998,10.07523Q2.2063800000000002,9.98456,2.11091,9.88909Q2.01544,9.79361,1.92477,9.69357Q1.8341,9.59353,1.74844,9.48916Q1.66279,9.38479,1.58236,9.27635Q1.50193,9.1679,1.426917,9.05564Q1.351905,8.94337,1.282493,8.82756Q1.2130800000000002,8.71176,1.1494330000000001,8.59268Q1.0857860000000001,8.47361,1.0280589999999998,8.35155Q0.970331,8.2295,0.918662,8.104759999999999Q0.866994,7.98002,0.821508,7.85289Q0.776022,7.72577,0.736828,7.59657Q0.697635,7.46736,0.664828,7.33639Q0.632022,7.20542,0.605681,7.073Q0.5793403,6.94057,0.5595292,6.80702Q0.539718,6.67346,0.526484,6.53909Q0.51325,6.40473,0.50662499,6.26987Q0.5,6.13502,0.5,6Q0.5,5.86498,0.50662499,5.73013Q0.51325,5.59527,0.526484,5.46091Q0.539718,5.32654,0.5595292,5.19298Q0.5793403,5.05943,0.605681,4.927Q0.632022,4.79458,0.664828,4.66361Q0.697635,4.53264,0.736828,4.40343Q0.776022,4.27423,0.821508,4.14711Q0.866994,4.01998,0.918662,3.89524Q0.970331,3.7705,1.0280589999999998,3.64845Q1.0857860000000001,3.52639,1.1494330000000001,3.40732Q1.2130800000000002,3.28824,1.282493,3.17243Q1.351905,3.05663,1.426917,2.94436Q1.50193,2.8321,1.58236,2.72365Q1.66279,2.61521,1.74844,2.51084Q1.8341,2.40647,1.92477,2.3064299999999998Q2.01544,2.2063800000000002,2.11091,2.11091Q2.2063800000000002,2.01544,2.3064299999999998,1.92477Q2.40647,1.8341,2.51084,1.74844Q2.61521,1.66279,2.72365,1.58236Q2.8321,1.50193,2.94436,1.426917Q3.05663,1.351905,3.17243,1.282493Q3.28824,1.2130800000000002,3.40732,1.1494330000000001Q3.52639,1.0857860000000001,3.64845,1.0280589999999998Q3.7705,0.970331,3.89524,0.918662Q4.01998,0.866994,4.14711,0.821508Q4.27423,0.776022,4.40343,0.736828Q4.53264,0.697635,4.66361,0.664828Q4.79458,0.632022,4.927,0.605681Q5.05943,0.5793403,5.19298,0.5595292Q5.32654,0.539718,5.46091,0.526484Q5.59527,0.51325,5.73013,0.50662499Q5.86498,0.5,6,0.5Q6.13502,0.5,6.26987,0.50662499Q6.40473,0.51325,6.53909,0.526484Q6.67346,0.539718,6.80702,0.5595292Q6.94057,0.5793403,7.073,0.605681Q7.20542,0.632022,7.33639,0.664828Q7.46736,0.697635,7.59657,0.736828Q7.72577,0.776022,7.85289,0.821508Q7.98002,0.866994,8.104759999999999,0.918662Q8.2295,0.970331,8.35155,1.0280589999999998Q8.47361,1.0857860000000001,8.59268,1.1494330000000001Q8.71176,1.2130800000000002,8.82756,1.282493Q8.94337,1.351905,9.05564,1.426917Q9.1679,1.50193,9.27635,1.58236Q9.38479,1.66279,9.48916,1.74844Q9.59353,1.8341,9.69357,1.92477Q9.79361,2.01544,9.88909,2.11091Q9.98456,2.2063800000000002,10.07523,2.3064299999999998Q10.1659,2.40647,10.25156,2.51084Q10.33721,2.61521,10.41764,2.72365Q10.49807,2.8321,10.5731,2.94436Q10.6481,3.05663,10.7175,3.17243Q10.7869,3.28824,10.8506,3.40732Q10.9142,3.52639,10.9719,3.64845Q11.0297,3.7705,11.0813,3.89524Q11.133,4.01998,11.1785,4.14711Q11.224,4.27423,11.2632,4.40343Q11.3024,4.53264,11.3352,4.66361Q11.368,4.79458,11.3943,4.927Q11.4207,5.05943,11.4405,5.19298Q11.4603,5.32654,11.4735,5.46091Q11.4867,5.59527,11.4934,5.73013Q11.5,5.86498,11.5,6Z" fill="#FF4D4F" fill-opacity="1"/></g><g><path d="M8.14099,0.932434Q7.11865,0.5,6,0.5Q4.88135,0.5,3.85901,0.932434Q2.87195,1.349945,2.11096,2.1109Q1.3499759999999998,2.87189,0.932373,3.85901Q0.5,4.88135,0.5,6Q0.5,7.11865,0.932373,8.14099Q1.3499759999999998,9.12811,2.11096,9.8891Q2.87195,10.6501,3.85901,11.0676Q4.88135,11.5,6,11.5Q7.11865,11.5,8.14099,11.0676Q9.12805,10.6501,9.88904,9.8891Q10.65,9.12811,11.0676,8.14099Q11.5,7.11865,11.5,6Q11.5,4.88135,11.0676,3.85901Q10.65,2.87189,9.88904,2.1109Q9.12805,1.349945,8.14099,0.932434ZM4.24854,1.85342Q5.08411,1.5,6,1.5Q6.91589,1.5,7.75146,1.85342Q8.55896,2.19495,9.18201,2.81802Q9.80505,3.44107,10.14661,4.24854Q10.5,5.08414,10.5,6Q10.5,6.91586,10.14661,7.75146Q9.80505,8.5589,9.18201,9.18198Q8.55896,9.80505,7.75146,10.14658Q6.91589,10.5,6,10.5Q5.08411,10.5,4.24854,10.14658Q3.44104,9.80505,2.81799,9.18198Q2.19495,8.55893,1.85339,7.75146Q1.5,6.91586,1.5,6Q1.5,5.08414,1.85339,4.24854Q2.19495,3.44107,2.81799,2.81802Q3.44104,2.19495,4.24854,1.85342ZM5.50183,4.0011L5.50159,4.25061L5.50159,4.2511C5.50159,4.25894,5.50183,4.26678,5.5022,4.27463C5.50793,4.3988,5.55994,4.51633,5.64771,4.60431C5.74133,4.69818,5.86853,4.75098,6.0011,4.7511L6.00159,4.7511C6.03198,4.7511,6.06226,4.74832,6.09204,4.74283C6.3291,4.69922,6.50134,4.492649999999999,6.50159,4.25159L6.50183,4.00159L6.50183,4.0011C6.50183,3.99326,6.50159,3.98541,6.50122,3.97757C6.49548,3.85339,6.44348,3.73587,6.35571,3.64789C6.26208,3.55402,6.13489,3.50122,6.00232,3.5011L6.00183,3.5011C5.97144,3.5011,5.94116,3.50388,5.91138,3.50937C5.67432,3.55298,5.50208,3.75955,5.50183,4.00061L5.50183,4.0011ZM5.50183,6.0011L5.50061,7.99969L5.50061,8C5.50061,8.030429999999999,5.50342,8.06076,5.50891,8.09067C5.55261,8.327729999999999,5.75928,8.49985,6.00024,8.5L6.00061,8.5C6.03101,8.5,6.0614,8.49722,6.09131,8.4917C6.32837,8.448,6.50049,8.24136,6.50061,8.000309999999999L6.50061,8L6.50183,6.0014L6.50183,6.0011C6.50183,5.97067,6.49902,5.94034,6.49353,5.91043C6.44983,5.67337,6.24316,5.50125,6.00208,5.5011L6.00183,5.5011C5.97144,5.5011,5.94104,5.50388,5.91113,5.5094C5.67407,5.5531,5.50195,5.75974,5.50183,6.00079L5.50183,6.0011Z" fill-rule="evenodd" fill="#FF4D4F" fill-opacity="1"/></g></g></svg>