<svg xmlns="http://www.w3.org/2000/svg" xmlns:xlink="http://www.w3.org/1999/xlink" fill="none" version="1.1" width="20" height="20" viewBox="0 0 20 20"><g><g transform="matrix(-1,-1.2246468525851679e-16,1.2246468525851679e-16,-1,36.66650390625,23.33349609375)" style="opacity:0.20000000298023224;"><path d="M22.496251953125,11.666748046875L20.833251953125,11.666748046875C19.452631953125,11.666748046875,18.333251953125,12.786028046875,18.333251953125,14.166748046875L18.333251953125,19.166748046875C18.333251953125,20.547468046875,19.452631953125,21.666748046875,20.833251953125,21.666748046875L22.496251953125,21.666748046875C22.956461953125,21.666748046875,23.329591953125,21.293618046875,23.329591953125,20.833418046875L23.329591953125,12.500081046875C23.329591953125,12.039876046875,22.956461953125,11.666748046875,22.496251953125,11.666748046875Z" fill="#8A8A8A" fill-opacity="1"/></g><g><path d="M14.1705859375,1.666748046875L5.0586759375,1.666951497875Q4.1864859375000005,1.657084146875,3.5218059375,2.222575046875Q2.8575459375000003,2.787758046875,2.7271359375,3.649068046875L1.6931966375,10.400268046875Q1.5316569375,11.466958046875,2.2386479375,12.280948046875Q2.9462459375,13.095648046875,4.0153759375,13.083448046875L7.6770859375,13.083448046875L7.6770859375,15.250148046875Q7.6770859375,16.526948046875,8.578975937500001,17.429948046874998Q9.4814859375,18.333448046875,10.7577259375,18.333448046875C11.0706359375,18.333448046875,11.3570959375,18.158248046875,11.4997159375,17.879848046875L14.6802859375,11.666748046875L15.8354859375,11.666748046875Q16.8701859375,11.666748046875,17.6017859375,10.935038046875Q18.3333859375,10.203428046875,18.3333859375,9.168678046875L18.3333859375,4.164918046875Q18.3333859375,3.130168046875,17.6017859375,2.398458046875Q16.8701859375,1.666748046875,15.8354859375,1.666748046875L14.1705859375,1.666748046875ZM15.0039859375,10.000078046875L15.8354859375,10.000078046875Q16.1796859375,10.000078046875,16.4233859375,9.756548046875Q16.666785937500002,9.513018046875,16.666785937500002,9.168678046875L16.666785937500002,4.164918046875Q16.666785937500002,3.820478046875,16.4233859375,3.5769480468749997Q16.1796859375,3.333418046875,15.8354859375,3.333418046875L15.0039859375,3.333418046875L15.0039859375,10.000078046875ZM13.3372859375,3.333418046875L5.0397559375,3.333518046875Q4.7913459375,3.330668046875,4.6019259375,3.491898046875Q4.4121059375,3.6534380468750003,4.3744759375,3.901348046875L3.3409459375,10.649898046875Q3.2947559374999997,10.955278046875,3.4969859375,11.188028046875Q3.6988159375,11.420368046875,4.0153759375,11.416808046875L8.5104159375,11.416808046875C8.9706259375,11.416808046875,9.3437459375,11.789948046875,9.3437459375,12.250148046875L9.3437459375,15.250148046875Q9.3437459375,15.837148046875,9.7581759375,16.252148046875Q9.9947959375,16.489048046875,10.2873559375,16.590548046875L13.3372859375,10.632508046875L13.3372859375,3.333418046875Z" fill-rule="evenodd" fill="#8A8A8A" fill-opacity="1"/></g></g></svg>