<svg xmlns="http://www.w3.org/2000/svg" xmlns:xlink="http://www.w3.org/1999/xlink" fill="none" version="1.1" width="16" height="16" viewBox="0 0 16 16"><g><g><g style="opacity:0.20000000298023224;"><path d="M13.333418046875,2.6666259765625L11.333415046875,2.6666259765625C10.965251046875,2.6666259765625,10.666748046875,2.9651289765625,10.666748046875,3.3332929765625L10.666748046875,13.9999259765625C10.666748046875,14.3681259765625,10.965251046875,14.6666259765625,11.333415046875,14.6666259765625L13.333418046875,14.6666259765625C14.069738046874999,14.6666259765625,14.666748046875,14.0697259765625,14.666748046875,13.3333259765625L14.666748046875,3.9999559765625C14.666748046875,3.2635499765625,14.069738046874999,2.6666259765625,13.333418046875,2.6666259765625Z" fill-rule="evenodd" fill="#2C54D1" fill-opacity="1"/></g><g><path d="M10.666581953125,3.3333740234375L10.666581953125,2.6667040234375L2.666581953125,2.6667040234375L2.666581953125,13.3333740234375L10.666581953125,13.3333740234375L10.666581953125,3.3333740234375ZM11.333251953125,14.6666740234375L2.666581953125,14.6666740234375Q2.114338953125,14.6666740234375,1.7237139531249999,14.2761740234375Q1.333251953125,13.8855740234375,1.333251953125,13.3333740234375L1.333251953125,2.6667040234375Q1.333251953125,2.1144610234375,1.7237139531249999,1.7239180234375Q2.114338953125,1.3333740234375,2.666581953125,1.3333740234375L10.666581953125,1.3333740234375Q11.218831953125,1.3333740234375,11.609451953125,1.7239180234375Q11.999951953125,2.1144610234375,11.999951953125,2.6667040234375L13.333251953125,2.6667040234375Q13.885451953125,2.6667040234375,14.276151953125,3.0572540234375003Q14.666551953125,3.4477940234375,14.666551953125,4.0000440234375L14.666551953125,13.3333740234375Q14.666551953125,13.8855740234375,14.276151953125,14.2761740234375Q13.885451953125,14.6666740234375,13.333251953125,14.6666740234375L11.333251953125,14.6666740234375ZM11.999951953125,4.0000440234375L11.999951953125,13.3333740234375L13.333251953125,13.3333740234375L13.333251953125,4.0000440234375L11.999951953125,4.0000440234375ZM4.666581953125,6.6667040234375L8.666581953125,6.6667040234375C9.034751953125,6.6667040234375,9.333251953125,6.3682040234375,9.333251953125,6.0000440234375C9.333251953125,5.6318740234375,9.034751953125,5.3333740234375,8.666581953125,5.3333740234375L4.666581953125,5.3333740234375C4.2984219531250005,5.3333740234375,3.999921953125,5.6318740234375,3.999921953125,6.0000440234375C3.999921953125,6.3682040234375,4.2984219531250005,6.6667040234375,4.666581953125,6.6667040234375ZM4.666581953125,9.3333740234375L6.666581953125,9.3333740234375C7.034751953125,9.3333740234375,7.333251953125,9.0348740234375,7.333251953125,8.6667040234375C7.333251953125,8.2985440234375,7.034751953125,8.0000440234375,6.666581953125,8.0000440234375L4.666581953125,8.0000440234375C4.2984219531250005,8.0000440234375,3.999921953125,8.2985440234375,3.999921953125,8.6667040234375C3.999921953125,9.0348740234375,4.2984219531250005,9.3333740234375,4.666581953125,9.3333740234375Z" fill-rule="evenodd" fill="#2C54D1" fill-opacity="1"/></g></g></g></svg>