<svg xmlns="http://www.w3.org/2000/svg" xmlns:xlink="http://www.w3.org/1999/xlink" fill="none" version="1.1" width="16" height="16" viewBox="0 0 16 16"><g><g><g style="opacity:0.20000000298023224;"><path d="M13.60938,3.3327659765625L11.333169999999999,1.0570479765625C11.083169999999999,0.8070479765625,10.74398,0.6666259765625,10.390460000000001,0.6666259765625L10,0.6666259765625L10,3.3332959765625L10.00358,3.4328159765625C10.05452,4.1227259765625,10.63037,4.6666259765625,11.33333,4.6666259765625L14,4.6666259765625L14,4.2756759765625C14,3.9219959765625,13.859539999999999,3.5828059765625,13.60938,3.3327659765625ZM8.66667,9.9999559765625L6,9.9999559765625L6,7.3332959765625L8.66667,7.3332959765625C9.402989999999999,7.3332959765625,10,7.9302559765625,10,8.6666259765625C10,9.4029959765625,9.402989999999999,9.9999559765625,8.66667,9.9999559765625Z" fill-rule="evenodd" fill="#2C54D1" fill-opacity="1"/></g><g><path d="M2,1.9999559765625L2,13.9999259765625Q2,14.5522259765625,2.390462,14.9427259765625Q2.781087,15.3333259765625,3.33333,15.3333259765625L12.6667,15.3333259765625Q13.2189,15.3333259765625,13.6095,14.9427259765625Q14,14.5522259765625,14,13.9999259765625L14,4.2760859765625Q14,3.7238359765625,13.6095,3.3332959765625L13.3333,3.0571659765625L11.60954,1.3332929765625L11.60889,1.3327639765625001L11.33333,1.0571699765625Q10.94287,0.6666259765625,10.39046,0.6666259765625L3.33333,0.6666259765625Q2.781087,0.6666259765625,2.390462,1.0571699765625Q2,1.4476729765625,2,1.9999559765625ZM9.36035,1.9999559765625L3.33333,1.9999559765625L3.33333,13.9999259765625L12.6667,13.9999259765625L12.6667,5.3062759765625Q12.5334,5.3332959765625,12.3905,5.3332959765625L10.66667,5.3332959765625Q10.11442,5.3332959765625,9.7238,4.9427459765625Q9.33333,4.552245976562499,9.33333,3.9999559765625L9.33333,2.2760859765625Q9.33333,2.1332559765625003,9.36035,1.9999559765625ZM12.3905,3.9999559765625L10.66667,2.2760859765625L10.66667,3.9999559765625L12.3905,3.9999559765625ZM5.33333,9.9999559765625L5.33333,11.9999259765625C5.33333,12.3681259765625,5.63184,12.6666259765625,6,12.6666259765625C6.36816,12.6666259765625,6.66667,12.3681259765625,6.66667,11.9999259765625L6.66667,10.6666259765625L8.66667,10.6666259765625Q9.49512,10.6666259765625,10.08089,10.0808559765625Q10.66667,9.4950359765625,10.66667,8.6666259765625Q10.66667,7.8382159765625,10.08089,7.2523959765625Q9.49512,6.6666259765625,8.66667,6.6666259765625L6,6.6666259765625C5.63184,6.6666259765625,5.33333,6.9650859765625,5.33333,7.3332959765625L5.33333,9.9999559765625ZM6.66667,7.9999559765625L6.66667,9.3332959765625L8.66667,9.3332959765625Q8.94287,9.3332959765625,9.138020000000001,9.1380259765625Q9.33333,8.9427459765625,9.33333,8.6666259765625Q9.33333,8.390505976562501,9.138020000000001,8.1952359765625Q8.94287,7.9999559765625,8.66667,7.9999559765625L6.66667,7.9999559765625Z" fill-rule="evenodd" fill="#2C54D1" fill-opacity="1"/></g></g></g></svg>