<svg xmlns="http://www.w3.org/2000/svg" xmlns:xlink="http://www.w3.org/1999/xlink" fill="none" version="1.1" width="16" height="16" viewBox="0 0 16 16"><g><g><g style="opacity:0.20000000298023224;"><path d="M13.333418046875,2.6666717529296875L11.333415046875,2.6666717529296875C10.965251046875,2.6666717529296875,10.666748046875,2.9651747529296877,10.666748046875,3.3333387529296874L10.666748046875,13.999971752929687C10.666748046875,14.368171752929687,10.965251046875,14.666671752929688,11.333415046875,14.666671752929688L13.333418046875,14.666671752929688C14.069738046874999,14.666671752929688,14.666748046875,14.069771752929688,14.666748046875,13.333371752929688L14.666748046875,4.000001752929688C14.666748046875,3.2635957529296875,14.069738046874999,2.6666717529296875,13.333418046875,2.6666717529296875Z" fill-rule="evenodd" fill="#2C54D1" fill-opacity="1"/></g><g><path d="M10.666581953125,3.3333282470703125L10.666581953125,2.6666582470703126L2.666581953125,2.6666582470703126L2.666581953125,13.333328247070312L10.666581953125,13.333328247070312L10.666581953125,3.3333282470703125ZM11.333251953125,14.666628247070312L2.666581953125,14.666628247070312Q2.114338953125,14.666628247070312,1.7237139531249999,14.276128247070313Q1.333251953125,13.885528247070312,1.333251953125,13.333328247070312L1.333251953125,2.6666582470703126Q1.333251953125,2.1144152470703124,1.7237139531249999,1.7238722470703125Q2.114338953125,1.3333282470703125,2.666581953125,1.3333282470703125L10.666581953125,1.3333282470703125Q11.218831953125,1.3333282470703125,11.609451953125,1.7238722470703125Q11.999951953125,2.1144152470703124,11.999951953125,2.6666582470703126L13.333251953125,2.6666582470703126Q13.885451953125,2.6666582470703126,14.276151953125,3.057208247070313Q14.666551953125,3.4477482470703125,14.666551953125,3.9999982470703124L14.666551953125,13.333328247070312Q14.666551953125,13.885528247070312,14.276151953125,14.276128247070313Q13.885451953125,14.666628247070312,13.333251953125,14.666628247070312L11.333251953125,14.666628247070312ZM11.999951953125,3.9999982470703124L11.999951953125,13.333328247070312L13.333251953125,13.333328247070312L13.333251953125,3.9999982470703124L11.999951953125,3.9999982470703124ZM4.666581953125,6.666658247070313L8.666581953125,6.666658247070313C9.034751953125,6.666658247070313,9.333251953125,6.368158247070313,9.333251953125,5.999998247070312C9.333251953125,5.631828247070312,9.034751953125,5.3333282470703125,8.666581953125,5.3333282470703125L4.666581953125,5.3333282470703125C4.2984219531250005,5.3333282470703125,3.999921953125,5.631828247070312,3.999921953125,5.999998247070312C3.999921953125,6.368158247070313,4.2984219531250005,6.666658247070313,4.666581953125,6.666658247070313ZM4.666581953125,9.333328247070312L6.666581953125,9.333328247070312C7.034751953125,9.333328247070312,7.333251953125,9.034828247070312,7.333251953125,8.666658247070313C7.333251953125,8.298498247070313,7.034751953125,7.999998247070312,6.666581953125,7.999998247070312L4.666581953125,7.999998247070312C4.2984219531250005,7.999998247070312,3.999921953125,8.298498247070313,3.999921953125,8.666658247070313C3.999921953125,9.034828247070312,4.2984219531250005,9.333328247070312,4.666581953125,9.333328247070312Z" fill-rule="evenodd" fill="#2C54D1" fill-opacity="1"/></g></g></g></svg>