<svg xmlns="http://www.w3.org/2000/svg" xmlns:xlink="http://www.w3.org/1999/xlink" fill="none" version="1.1" width="16" height="16" viewBox="0 0 16 16"><g><g><g style="opacity:0.20000000298023224;"><path d="M7.995198046875,2.3383017529296874C9.557368046875,0.7762097529296875,12.089948046875,0.7762097529296875,13.652148046875,2.3383017529296874C15.214148046875,3.9003917529296874,15.214148046875,6.433031752929687,13.652148046875,7.995121752929688L11.766548046875,9.880781752929687C11.506148046875,10.141121752929687,11.084068046875,10.141121752929687,10.823648046875,9.880781752929687L6.109618046875,5.1666717529296875C5.849198046875,4.906331752929688,5.849198046875,4.484221752929688,6.109618046875,4.223881752929687L7.995198046875,2.3383017529296874ZM5.166748046875,6.109541752929688L9.880778046875,10.823571752929688C10.141198046875,11.083911752929687,10.141198046875,11.506071752929687,9.880778046875,11.766371752929688L7.995198046875,13.652071752929688C6.433188046875,15.214071752929687,3.900468046875,15.214071752929687,2.338298046875,13.652071752929688C0.776286046875,12.089871752929687,0.776286046875,9.557211752929687,2.338298046875,7.995121752929688L4.224038046875,6.109541752929688C4.484298046875001,5.849121752929688,4.906498046875,5.849121752929688,5.166748046875,6.109541752929688Z" fill-rule="evenodd" fill="#2C54D1" fill-opacity="1"/></g><g><path d="M12.714130859375,7.057210859375L10.828370859375,8.942870859374999C10.568110859375,9.203210859375,10.568110859375,9.625330859375,10.828370859375,9.885660859375C11.088790859375,10.146080859375,11.510830859375,10.146080859375,11.771230859375,9.885740859375L13.657030859375,8.000080859375Q14.828330859375,6.828450859375,14.828330859375,5.171630859375Q14.828330859375,3.514810859375,13.657030859375,2.343260859375Q12.485430859375,1.171630859375,10.828370859375,1.171630859375Q9.171470859374999,1.171630859375,7.999920859375,2.343180859375L6.114500859375,4.228680859375L6.114340859375,4.228920859375C5.989340859375,4.353920859375,5.919190859375,4.523440859375,5.919190859375,4.700280859375C5.919190859375,4.877120859375,5.989340859375,5.046630859375,6.114340859375,5.171710859375C6.239340859375,5.296710859375,6.408930859375,5.366940859375,6.585860859375,5.366940859375C6.762610859375,5.366940859375,6.932210859375,5.296710859375,7.057210859375,5.171630859375L7.057540859375,5.171300859375L8.942790859375,3.286050859375Q9.723880859375,2.504960859375,10.828370859375,2.504960859375Q11.933030859375,2.504960859375,12.714130859375,3.285970859375Q13.495030859375,4.067060859375,13.495030859375,5.171630859375Q13.495030859375,6.276200859375,12.714130859375,7.057210859375ZM10.828040859375,6.114750859375L10.828370859375,6.114420859375C10.953370859375,5.989340859375,11.023680859375,5.819820859375,11.023680859375,5.642980859375C11.023680859375,5.466150859375,10.953370859375,5.296630859375,10.828370859375,5.1715508593749995C10.703370859375,5.0465508593749995,10.533770859375,4.976320859375,10.357010859375,4.976320859375C10.180090859375,4.976320859375,10.010500859375,5.0465508593749995,9.885500859375,5.1715508593749995L8.471270859375,6.585770859375C8.346270859375,6.710860859375,8.275960859375001,6.880370859375,8.275960859375001,7.057210859375C8.275960859375001,7.234050859375,8.346270859375,7.403560859375,8.471270859375,7.528650859375C8.596270859375,7.653650859375,8.765870859375,7.723880859375,8.942630859375,7.723880859375C9.119550859375,7.723880859375,9.289140859375,7.653650859375,9.414140859375,7.528650859375L10.828040859375,6.114750859375ZM3.286050859375,8.942870859374999L5.171630859375,7.057290859375C5.431880859375,6.796870859375,5.431880859375,6.374840859375,5.171630859375,6.114420859375C4.911210859375,5.854080859375,4.489180859375001,5.854080859375,4.228760859375,6.114420859375L2.343180859375,8.000000859375Q1.171630859375,9.171630859375,1.171630859375,10.828450859375Q1.171630859375,12.485330859375,2.343180859375,13.657030859375Q3.514730859375,14.828530859375,5.171630859375,14.828530859375Q6.828530859375,14.828530859375,8.000080859375,13.657030859375L9.885340859375,11.771630859375L9.885660859375,11.771230859375C10.010660859375,11.646230859375,10.080810859375,11.476730859375,10.080970859375,11.299930859375C10.080810859375,11.123050859375,10.010660859375,10.953530859375,9.885660859375,10.828450859375C9.760660859375,10.703450859375,9.591060859375,10.633220859375,9.414310859375,10.633220859375C9.237390859375,10.633220859375,9.067790859375,10.703450859375,8.942790859375,10.828530859375L8.942460859375,10.828860859375L7.057210859375,12.714130859375Q6.276120859375,13.495230859375,5.171630859375,13.495230859375Q4.067140859375,13.495230859375,3.286050859375,12.714130859375Q2.504960859375,11.933130859375,2.504960859375,10.828450859375Q2.504960859375,9.723880859375,3.286050859375,8.942870859374999ZM7.528240859375,9.414630859375L7.528560859375,9.414310859375C7.653560859375,9.289220859375,7.723880859375,9.119710859375001,7.723880859375,8.942870859374999C7.723880859375,8.766030859375,7.653560859375,8.596520859375001,7.528560859375,8.471430859375001C7.403560859375,8.346430859375001,7.233970859375,8.276200859374999,7.057210859375,8.276200859374999C6.880290859375,8.276200859374999,6.710690859375,8.346430859375001,6.585690859375,8.471430859375001L5.171470859375,9.885660859375C5.046470859375,10.010740859375,4.976150859375,10.180260859375,4.976150859375,10.357100859375C4.976320859375,10.533930859375,5.046470859375,10.703450859375,5.171470859375,10.828530859375C5.296470859375,10.953530859375,5.466060859375,11.023760859375,5.642820859375,11.023760859375C5.819740859375,11.023760859375,5.989340859375,10.953530859375,6.114340859375,10.828530859375L7.528240859375,9.414630859375Z" fill-rule="evenodd" fill="#2C54D1" fill-opacity="1"/></g></g></g></svg>