<svg xmlns="http://www.w3.org/2000/svg" xmlns:xlink="http://www.w3.org/1999/xlink" fill="none" version="1.1" width="16" height="16" viewBox="0 0 16 16"><defs><clipPath id="master_svg0_1564_050921"><rect x="0" y="0" width="16" height="16" rx="0"/></clipPath></defs><g clip-path="url(#master_svg0_1564_050921)"><g><g><g style="opacity:0.20000000298023224;"><path d="M7.529953505859375,4.195231L3.529958505859375,8.195229999999999C3.110036505859375,8.61523,3.407399505859375,9.33333,4.001312505859375,9.33333L12.001313505859375,9.33333C12.595223505859375,9.33333,12.892753505859375,8.61523,12.472833505859375,8.195229999999999L8.472833505859375,4.195231C8.212413505859374,3.9348958,7.790213505859375,3.9348958,7.529953505859375,4.195231Z" fill="#FFFFFF" fill-opacity="1"/></g><g><path d="M4.000010505859375,2.6667040234375L12.000013505859375,2.6667040234375C12.368173505859374,2.6667040234375,12.666673505859375,2.3682040234375,12.666673505859375,2.0000410234375C12.666673505859375,1.6318770234375,12.368173505859374,1.3333740234375,12.000013505859375,1.3333740234375L4.000010505859375,1.3333740234375C3.631846505859375,1.3333740234375,3.333343505859375,1.6318770234375,3.333343505859375,2.0000410234375C3.333343505859375,2.3682040234375,3.631846505859375,2.6667040234375,4.000010505859375,2.6667040234375ZM11.528333505859376,9.137734023437499L11.528653505859374,9.138144023437501C11.653653505859374,9.263144023437501,11.823253505859375,9.3333740234375,12.000013505859375,9.3333740234375C12.176763505859375,9.3333740234375,12.346363505859374,9.263144023437501,12.471363505859374,9.138144023437501C12.596363505859374,9.0130640234375,12.666673505859375,8.843544023437499,12.666673505859375,8.6667040234375C12.666673505859375,8.4898640234375,12.596363505859374,8.320354023437499,12.471363505859374,8.1952740234375L8.471363505859376,4.1952740234375C8.346363505859376,4.0702740234375,8.176763505859375,4.0000440234375,8.000013505859375,4.0000440234375L7.999843505859375,4.0000440234375C7.978363505859375,4.0000440234375,7.957043505859375,4.0010940234375,7.935723505859375,4.0031340234375C7.781913505859375,4.0180240234374995,7.637863505859375,4.0859740234375,7.528653505859375,4.1952740234375L7.528163505859375,4.195674023437499L3.528818505859375,8.195024023437501L3.528655505859375,8.1952740234375C3.403656005859375,8.320354023437499,3.333343505859375,8.4898640234375,3.333343505859375,8.6667040234375C3.333343505859375,8.843544023437499,3.403656005859375,9.0130640234375,3.528655505859375,9.138144023437501C3.653655505859375,9.263144023437501,3.823252505859375,9.3333740234375,4.000010505859375,9.3333740234375C4.176767505859375,9.3333740234375,4.346363505859375,9.263144023437501,4.471363505859375,9.138144023437501L4.471693505859375,9.1378940234375L7.333833505859375,6.2756740234375L7.336113505859375,14.0000740234375L7.336113505859375,14.0001740234375C7.336273505859375,14.3683740234375,7.634613505859375,14.6666740234375,8.002773505859375,14.6666740234375L8.002943505859374,14.6666740234375C8.179863505859375,14.6666740234375,8.349293505859375,14.5963740234375,8.474293505859375,14.4712740234375C8.599293505859375,14.3462740234375,8.669443505859375,14.1767740234375,8.669443505859375,14.0000740234375L8.669443505859375,13.9998740234375L8.667163505859374,6.2766540234375L11.528333505859376,9.137734023437499Z" fill-rule="evenodd" fill="#FFFFFF" fill-opacity="1"/></g></g></g></g></svg>