<svg xmlns="http://www.w3.org/2000/svg" xmlns:xlink="http://www.w3.org/1999/xlink" fill="none" version="1.1" width="206" height="32" viewBox="0 0 206 32"><defs><linearGradient x1="1" y1="0.5" x2="0" y2="0.5" id="master_svg0_861_38548"><stop offset="0%" stop-color="#45C8FF" stop-opacity="1"/><stop offset="48.47047030925751%" stop-color="#4CCAFF" stop-opacity="1"/><stop offset="51.056647300720215%" stop-color="#6CEAFE" stop-opacity="1"/><stop offset="100%" stop-color="#69E9FE" stop-opacity="1"/></linearGradient></defs><g><g><g><path d="M0 4C2.452636981645965e-16 1.7908610006768262 1.7908610006768266 0 4 0L28 0C30.209138999323173 0 32 1.7908610006768266 32 4L32 32C32 32 32 32 32 32L0 32C0 32 0 32 0 32Z" fill="#FFFFFF" fill-opacity="0.009999999776482582"/></g><g><g><path d="M5.187599468976259,10.025000095367432L15.449999468976259,15.950000095367432L15.449999468976259,27.80000009536743L5.187599468976259,21.875000095367433L5.187599468976259,10.025000095367432Z" fill="#1773FF" fill-opacity="1"/></g><g><path d="M15.449999468976259,4.149999905377626L25.71239946897626,10.074999905377627L15.449999468976259,15.999999905377626L5.187599468976259,10.074999905377627L15.449999468976259,4.149999905377626Z" fill="url(#master_svg0_861_38548)" fill-opacity="1"/></g><g><path d="M25.712400286102294,10.025000095367432L15.450000286102295,15.950000095367432L15.450000286102295,27.80000009536743L25.712400286102294,21.875000095367433L25.712400286102294,10.025000095367432Z" fill="#0BA3FD" fill-opacity="1"/></g><g><path d="M15.3999994682312,4.099999904632568L16.1161994682312,14.709299904632568L25.6623994682312,10.024999904632569L16.8324994682312,15.949899904632568L25.6623994682312,21.874999904632567L16.1161994682312,17.19059990463257L15.3999994682312,27.799999904632568L14.683799468231202,17.19059990463257L5.137599468231201,21.874999904632567L13.967499468231201,15.949899904632568L5.137599468231201,10.024999904632569L14.683799468231202,14.709299904632568L15.3999994682312,4.099999904632568Z" fill-rule="evenodd" fill="#FFFFFF" fill-opacity="1"/></g></g></g><g><path d="M56.616,7.844L53.256,8.059999999999999L50.112,8.276L49.92,10.052L58.007999999999996,10.052L57.768,11.996L51.408,11.996Q54.239999999999995,13.724,58.656,15.068L57.120000000000005,16.772Q54.744,15.932,52.968,15.008Q51.192,14.084,49.608000000000004,12.788L49.296,15.524L46.968,15.524L47.28,12.764Q43.992,15.38,39.264,16.747999999999998L37.896,15.068Q42.408,13.94,45.336,11.996L39.408,11.996L39.648,10.052L47.568,10.052L47.76,8.372Q45.792,8.468,42.576,8.54L40.992,8.588000000000001L41.232,6.644Q43.824,6.62,48.888,6.38Q51.192,6.26,56.184,5.9L56.879999999999995,5.852L56.616,7.844ZM57.768,17.348L57.528,19.316L54.239999999999995,19.316Q52.872,21.356,50.88,22.772Q54.120000000000005,23.828,56.976,24.884L55.512,26.564Q52.08,25.268,48.576,24.092Q46.728,24.956,44.376,25.532Q42.024,26.108,38.976,26.468L37.944,24.572Q42.768,24.068,45.552,23.084L42.576,22.124Q42.144,22.004,41.903999999999996,21.74Q41.664,21.476,41.664,21.14Q41.664,20.708,42.096000000000004,20.276Q42.096000000000004,20.276,42.552,19.82L43.008,19.316L38.856,19.316L39.096000000000004,17.348L44.544,17.348Q45.192,16.508,45.528,15.884L48.072,15.884L47.135999999999996,17.348L57.768,17.348ZM44.592,20.804Q47.064,21.548,48.263999999999996,21.932Q50.232,20.852,51.528,19.316L45.792,19.316Q45.144,20.18,44.592,20.804ZM72.19200000000001,5.516L71.73599999999999,8.732L76.77600000000001,8.732Q77.904,8.732,78.372,9.176Q78.84,9.62,78.84,10.628Q78.84,10.988,78.816,11.204Q78.52799999999999,14.66,78.072,18.332Q77.64,21.836,77.136,24.284Q76.72800000000001,26.132,74.904,26.132Q74.544,26.132,74.136,26.06Q71.88,25.604,70.32,24.836L70.72800000000001,22.508Q72.312,23.132,74.232,23.612Q74.44800000000001,23.684,74.592,23.684Q74.75999999999999,23.684,74.844,23.552Q74.928,23.42,75,23.084Q75.792,18.668,76.44,11.036L71.4,11.036L71.256,12.164Q70.608,16.652,68.78399999999999,20.276Q66.96000000000001,23.9,64.29599999999999,26.324L61.872,25.556Q64.584,23.036,66.432,19.556Q68.28,16.076,68.832,12.116L68.976,11.036L63.96,11.036L64.248,8.732L69.26400000000001,8.732L69.696,5.516L72.19200000000001,5.516ZM66.504,13.484L64.008,20.372L61.632000000000005,20.372L64.128,13.484L66.504,13.484ZM81.696,13.508L82.368,20.684L80.136,20.684L79.488,13.508L81.696,13.508ZM104.832,12.332L90.576,12.332L90.384,13.892L103.368,13.892Q104.496,13.892,105,14.3Q105.504,14.708,105.504,15.596Q105.504,15.74,105.456,16.124000000000002L104.352,24.572Q104.232,25.412,103.752,25.832Q103.272,26.252,102.528,26.252Q101.568,26.252,100.428,26.108Q99.288,25.964,98.4,25.748L98.64,23.732L99.408,23.876Q100.128,24.02,101.016,24.116L101.688,24.188Q101.952,24.188,102.024,24.116Q102.096,24.044,102.12,23.78L103.128,15.86L90.144,15.86L90.12,16.028Q89.80799999999999,18.692,89.064,21.62Q88.29599999999999,24.548,87.408,26.252L85.032,25.7Q85.968,23.924,86.712,21.116Q87.408,18.524,87.696,15.932L88.68,7.94Q88.8,7.052,89.304,6.668Q89.80799999999999,6.284,90.72,6.284L103.656,6.284Q104.52,6.284,104.916,6.62Q105.312,6.956,105.312,7.7Q105.312,8.012,105.288,8.18L104.832,12.332ZM103.008,8.251999999999999L91.104,8.251999999999999L90.84,10.364L102.744,10.364L103.008,8.251999999999999ZM100.008,23.036L91.032,23.036L91.536,18.668Q91.77600000000001,17.204,93.408,17.204L98.80799999999999,17.204Q99.624,17.204,100.068,17.588Q100.512,17.972,100.512,18.692Q100.512,18.932,100.488,19.052L100.008,23.036ZM93.336,21.26L98.088,21.26L98.328,18.98L93.6,18.98L93.336,21.26ZM109.704,17.012L119.976,17.012L119.64,19.652L109.368,19.652L109.704,17.012Z" fill="#FFFFFF" fill-opacity="1"/></g><g><path d="M134.336,10.428L134.176,11.868L132.176,11.868Q132.096,12.748000000000001,131.872,14.508L134.272,14.508L134.112,15.964L131.632,15.964L131.504,16.476L132.16,17.58Q132.656,18.428,133.344,19.708L133.952,20.844L132.56,21.532Q131.61599999999999,19.5,130.928,18.172Q129.936,20.492,128.208,22.62L126.72,22.028Q128.256,20.092,128.944,18.828Q129.696,17.468,130.064,15.964L127.6,15.964L127.76,14.508L130.336,14.508Q130.56,12.748000000000001,130.64,11.868L128.912,11.868Q128.656,11.868,128.512,11.74Q128.368,11.612,128.368,11.404Q128.368,11.228,128.464,11.036L129.216,8.892L130.752,8.892L130.336,10.428L134.336,10.428ZM139.648,22.156L134.048,22.156L135.264,11.132Q135.344,10.428,135.624,10.132Q135.904,9.836,136.464,9.836L139.76,9.836Q140.944,9.836,140.8,11.26L139.648,22.156ZM139.248,11.276L136.752,11.276L135.712,20.7L138.272,20.7L139.248,11.276ZM144.784,9.1L148,10.556000000000001L147.776,12.155999999999999L144.576,10.7L144.784,9.1ZM155.952,16.844L148.736,16.844L149.424,10.908000000000001Q149.504,10.14,149.824,9.844Q150.144,9.548,150.88,9.548L155.248,9.548Q156.624,9.548,156.624,10.828Q156.624,11.02,156.608,11.116L155.952,16.844ZM150.432,15.42L154.59199999999998,15.42L155.10399999999998,10.956L150.912,10.956L150.432,15.42ZM146.07999999999998,19.532Q146.064,19.58,146.064,19.644Q146.064,19.740000000000002,146.128,19.740000000000002Q146.208,19.740000000000002,146.288,19.676000000000002Q147.136,19.212,147.936,18.588L147.968,20.284Q147.712,20.46,147.072,20.844L146.608,21.1L146.224,21.323999999999998Q145.792,21.564,145.456,21.564Q145.168,21.564,144.928,21.404Q144.448,21.067999999999998,144.544,20.14L145.2,14.508L143.36,14.508L143.536,13.068L145.712,13.068Q146.208,13.068,146.472,13.332Q146.736,13.596,146.736,14.091999999999999Q146.736,14.268,146.72,14.364L146.07999999999998,19.532ZM149.10399999999998,22.556L147.344,22.556L149.904,17.724L151.52,17.724L149.10399999999998,22.556ZM154.816,17.724L156.544,22.636L154.832,22.636L153.216,17.724L154.816,17.724ZM162.208,15.564Q161.96800000000002,17.708,161.536,19.387999999999998Q161.008,21.451999999999998,160.24,22.764L158.736,22.332Q159.61599999999999,20.732,160.03199999999998,19.084Q160.368,17.756,160.672,15.292L161.152,11.196Q161.232,10.492,161.528,10.164Q161.824,9.836,162.464,9.836L166.832,9.836L166.416,8.748000000000001L168.112,8.748000000000001L168.56,9.836L173.152,9.836L172.992,11.276L162.72,11.276L162.208,15.564ZM167.10399999999998,16.268L167.28,14.828L168.8,14.828L168.624,16.268L171.904,16.268L171.744,17.612000000000002L168.464,17.612000000000002L168.304,18.908L172.64,18.908L172.496,20.284L168.144,20.284L167.84,22.78L166.32,22.78L166.624,20.284L162.064,20.284L162.224,18.908L166.784,18.908L166.94400000000002,17.612000000000002L164.112,17.612000000000002Q163.648,17.612000000000002,163.376,17.387999999999998Q163.10399999999998,17.164,163.10399999999998,16.828Q163.10399999999998,16.524,163.328,16.172Q163.44,16.012,163.632,15.692Q164.24,14.78,164.576,14.236L162.88,14.236L163.04,12.876000000000001L165.344,12.876000000000001Q165.632,12.332,165.92000000000002,11.692L167.52,11.692Q167.28,12.236,166.94400000000002,12.876000000000001L172.59199999999998,12.876000000000001L172.448,14.236L166.192,14.236Q165.744,15.02,164.976,16.268L167.10399999999998,16.268ZM185.76,8.828L185.312,9.66L189.184,9.66L189.05599999999998,10.844000000000001L187.088,10.844000000000001L187.584,12.14L186.112,12.14L185.648,10.844000000000001L184.624,10.844000000000001L184.03199999999998,11.772L182.32,11.772Q183.12,10.636,184.128,8.828L185.76,8.828ZM182.832,9.66L182.624,10.844000000000001L180.752,10.844000000000001L181.216,11.98L179.728,11.98L179.312,10.844000000000001L178.464,10.844000000000001Q177.872,11.74,177.40800000000002,12.364L175.6,12.364Q177.184,10.283999999999999,177.936,8.876L179.648,8.876L179.424,9.292L179.184,9.66L182.832,9.66ZM181.45600000000002,11.948L183.136,11.948L183.328,12.7L187.136,12.7Q187.872,12.7,188.216,12.956Q188.56,13.212,188.56,13.74Q188.56,13.916,188.54399999999998,14.012L188.368,15.516L186.848,15.516L187.008,13.98L177.536,13.98L177.328,15.532L175.84,15.532L176.03199999999998,13.98Q176.112,13.292,176.43200000000002,12.996Q176.752,12.7,177.40800000000002,12.7L181.61599999999999,12.7L181.45600000000002,11.948ZM177.536,15.98Q177.61599999999999,15.308,177.96,15.036Q178.304,14.764,179.04,14.764L185.328,14.764Q185.984,14.764,186.288,14.996Q186.59199999999998,15.228,186.59199999999998,15.756Q186.59199999999998,15.948,186.576,16.044L186.336,18.124000000000002L178.8,18.124000000000002L178.704,18.939999999999998L185.504,18.939999999999998Q186.16,18.939999999999998,186.472,19.18Q186.784,19.42,186.784,19.98Q186.784,20.172,186.768,20.284L186.496,22.524L176.752,22.524L177.536,15.98ZM185.024,15.98L179.05599999999998,15.98L178.94400000000002,16.924L184.912,16.924L185.024,15.98ZM185.072,21.276L185.184,20.156L178.56,20.156L178.416,21.276L185.072,21.276ZM204.56,21.1L204.4,22.476L195.312,22.476L195.47199999999998,21.1L199.12,21.1L199.328,19.34L196.464,19.34L196.624,17.996000000000002L199.47199999999998,17.996000000000002L199.632,16.619999999999997L196.59199999999998,16.619999999999997L197.328,10.508Q197.424,9.98,197.704,9.676Q197.98399999999998,9.372,198.48000000000002,9.372L203.584,9.372Q204.192,9.372,204.52800000000002,9.78Q204.864,10.188,204.784,10.876000000000001L204.128,16.619999999999997L201.10399999999998,16.619999999999997L200.94400000000002,17.996000000000002L204.16,17.996000000000002L204,19.34L200.8,19.34L200.59199999999998,21.1L204.56,21.1ZM195.888,20.284Q194.512,20.668,193.312,20.956Q192.24,21.212,190.736,21.484L190.928,19.98L191.76,19.82L192.56,19.676000000000002L193.00799999999998,15.692L191.36,15.692L191.51999999999998,14.315999999999999L193.168,14.315999999999999L193.536,11.164L191.728,11.164L191.888,9.772L196.72,9.772L196.56,11.164L195.04000000000002,11.164L194.672,14.315999999999999L196.224,14.315999999999999L196.064,15.692L194.512,15.692L194.07999999999998,19.323999999999998Q194.784,19.164,196.048,18.811999999999998L195.888,20.284ZM200.304,10.716000000000001L198.704,10.716000000000001L198.512,12.347999999999999L200.112,12.347999999999999L200.304,10.716000000000001ZM203.168,12.347999999999999L203.36,10.716000000000001L201.776,10.716000000000001L201.584,12.347999999999999L203.168,12.347999999999999ZM199.96800000000002,13.628L198.368,13.628L198.176,15.276L199.792,15.276L199.96800000000002,13.628ZM201.44,13.628L201.264,15.276L202.848,15.276L203.024,13.628L201.44,13.628Z" fill="#FFFFFF" fill-opacity="1"/></g></g></svg>