<svg xmlns="http://www.w3.org/2000/svg" xmlns:xlink="http://www.w3.org/1999/xlink" fill="none" version="1.1" width="24" height="24" viewBox="0 0 24 24"><g><g style="opacity:0.3199999928474426;"><path d="M6.5,2C4.0147200000000005,2.0000000000000004,1.9999999999999993,4.0147200000000005,2,6.5C1.9999999999999982,8.98528,4.0147200000000005,11,6.5,11L9,11C10.10457,11,11,10.10457,11,9L11,6.5C11,4.0147200000000005,8.98528,1.9999999999999993,6.5,2ZM9,13L6.5,13C4.0147200000000005,13,1.9999999999999993,15.0147,2,17.5C1.9999999999999982,19.9853,4.0147200000000005,22,6.5,22C8.98528,22,11,19.9853,11,17.5L11,15C11,13.8954,10.10457,13,9,13ZM17.5,2C15.0147,2.0000000000000004,13,4.0147200000000005,13,6.5L13,9C13,10.10457,13.8954,11,15,11L17.5,11C19.9853,11,22,8.98528,22,6.5C22,4.0147200000000005,19.9853,1.9999999999999993,17.5,2Z" fill-rule="evenodd" fill="#1E6FFF" fill-opacity="1"/></g><g><path d="M17.5,13L15,13C13.895431,13,13,13.895431,13,15L13,17.5C12.999999999999998,19.98528,15.01472,22,17.5,22C19.98528,22,22,19.98528,22,17.5C22,15.01472,19.98528,13,17.5,13Z" fill-rule="evenodd" fill="#1E6FFF" fill-opacity="1"/></g></g></svg>