<svg xmlns="http://www.w3.org/2000/svg" xmlns:xlink="http://www.w3.org/1999/xlink" fill="none" version="1.1" width="16" height="16" viewBox="0 0 16 16"><g><g><path d="M10.6667040234375,3.33349609375L10.6667040234375,2.66682609375L2.6667040234375,2.66682609375L2.6667040234375,13.33349609375L10.6667040234375,13.33349609375L10.6667040234375,3.33349609375ZM11.3333740234375,14.66679609375L2.6667040234375,14.66679609375Q2.1144610234375,14.66679609375,1.7238360234374999,14.27629609375Q1.3333740234375,13.88569609375,1.3333740234375,13.33349609375L1.3333740234375,2.66682609375Q1.3333740234375,2.11458309375,1.7238360234374999,1.72404009375Q2.1144610234375,1.33349609375,2.6667040234375,1.33349609375L10.6667040234375,1.33349609375Q11.2189540234375,1.33349609375,11.6095740234375,1.72404009375Q12.0000740234375,2.11458309375,12.0000740234375,2.66682609375L13.3333740234375,2.66682609375Q13.8855740234375,2.66682609375,14.2762740234375,3.0573760937500003Q14.6666740234375,3.44791609375,14.6666740234375,4.00016609375L14.6666740234375,13.33349609375Q14.6666740234375,13.88569609375,14.2762740234375,14.27629609375Q13.8855740234375,14.66679609375,13.3333740234375,14.66679609375L11.3333740234375,14.66679609375ZM12.0000740234375,4.00016609375L12.0000740234375,13.33349609375L13.3333740234375,13.33349609375L13.3333740234375,4.00016609375L12.0000740234375,4.00016609375ZM4.6667040234375,6.66682609375L8.6667040234375,6.66682609375C9.0348740234375,6.66682609375,9.3333740234375,6.36832609375,9.3333740234375,6.00016609375C9.3333740234375,5.63199609375,9.0348740234375,5.33349609375,8.6667040234375,5.33349609375L4.6667040234375,5.33349609375C4.2985440234375005,5.33349609375,4.0000440234375,5.63199609375,4.0000440234375,6.00016609375C4.0000440234375,6.36832609375,4.2985440234375005,6.66682609375,4.6667040234375,6.66682609375ZM4.6667040234375,9.33349609375L6.6667040234375,9.33349609375C7.0348740234375,9.33349609375,7.3333740234375,9.03499609375,7.3333740234375,8.66682609375C7.3333740234375,8.29866609375,7.0348740234375,8.00016609375,6.6667040234375,8.00016609375L4.6667040234375,8.00016609375C4.2985440234375005,8.00016609375,4.0000440234375,8.29866609375,4.0000440234375,8.66682609375C4.0000440234375,9.03499609375,4.2985440234375005,9.33349609375,4.6667040234375,9.33349609375Z" fill-rule="evenodd" fill="#4B4B4B" fill-opacity="1"/></g></g></svg>