<svg xmlns="http://www.w3.org/2000/svg" xmlns:xlink="http://www.w3.org/1999/xlink" fill="none" version="1.1" width="16" height="16" viewBox="0 0 16 16"><g><g><path d="M0,8Q0,4.68629,2.34315,2.34315Q4.68629,0,8,0Q9.68084,0,11.2088,0.669716Q15.0346,2.34659,15.8465,6.43309Q16,7.20582,16,8Q16,11.3137,13.6569,13.6569Q11.3137,16,8,16Q4.68629,16,2.34315,13.6569Q0,11.3137,0,8ZM1.45454,8Q1.45454,10.7112,3.37166,12.6283Q5.28878,14.5455,8,14.5455Q10.7112,14.5455,12.6283,12.6283Q14.5455,10.7112,14.5455,8Q14.5455,7.34891,14.4198,6.71654Q13.7557,3.37421,10.6249,2.00191Q9.37606,1.45455,8,1.45455Q5.28878,1.45455,3.37166,3.37166Q1.45455,5.28878,1.45454,8ZM8,5.81818C8.40166,5.81818,8.72727,5.49257,8.72727,5.09091C8.72727,4.68925,8.40166,4.36364,8,4.36364C7.59834,4.36364,7.27273,4.68925,7.27273,5.09091C7.27273,5.49257,7.59834,5.81818,8,5.81818ZM7.27273,10.9091L7.27273,8C7.27273,7.59834,7.59834,7.27273,8,7.27273C8.40166,7.27273,8.72727,7.59834,8.72727,8L8.72727,10.9091C8.72727,11.3108,8.40166,11.6364,8,11.6364C7.59834,11.6364,7.27273,11.3108,7.27273,10.9091Z" fill-rule="evenodd" fill="#4B4B4B" fill-opacity="1"/></g></g></svg>