<svg xmlns="http://www.w3.org/2000/svg" xmlns:xlink="http://www.w3.org/1999/xlink" fill="none" version="1.1" width="16" height="16" viewBox="0 0 16 16"><g><g><path d="M14.3237740234375,4.08374390625L8.323774023437501,0.7504069062500001C8.1224340234375,0.63854980625,7.8776440234375,0.63854980625,7.6763140234375,0.7504069062500001L1.6763100234375,4.08374390625C1.4645590234374999,4.20129390625,1.3333740234375,4.42439390625,1.3333740234375,4.66650390625L1.3333740234375,11.33320390625C1.3333740234375,11.57530390625,1.4645590234374999,11.79840390625,1.6763100234375,11.91590390625L7.6763140234375,15.24930390625C7.8776440234375,15.36110390625,8.1224340234375,15.36110390625,8.323774023437501,15.24930390625L14.3237740234375,11.91590390625C14.5354740234375,11.79840390625,14.6666740234375,11.57530390625,14.6666740234375,11.33320390625L14.6666740234375,4.66650390625C14.6666740234375,4.42439390625,14.5354740234375,4.20129390625,14.3237740234375,4.08374390625ZM8.0000440234375,2.0958239062499997L3.3769940234375,4.66418390625L8.0228240234375,7.22456390625L12.6272740234375,4.66650390625L8.0000440234375,2.0958239062499997ZM13.3333740234375,5.79952390625L13.3333740234375,10.94090390625L8.6667040234375,13.53350390625L8.6667040234375,8.39209390625L13.3333740234375,5.79952390625ZM2.6667040234375,5.79952390625L7.3333740234375,8.39209390625L7.3333740234375,13.53350390625L2.6667040234375,10.94090390625L2.6667040234375,5.79952390625Z" fill-rule="evenodd" fill="#4B4B4B" fill-opacity="1"/></g></g></svg>