<svg xmlns="http://www.w3.org/2000/svg" xmlns:xlink="http://www.w3.org/1999/xlink" fill="none" version="1.1" width="16" height="16" viewBox="0 0 16 16"><g><g><path d="M2.2121180234375,6.45483609375Q3.0906940234375,7.33349609375,4.3333740234375,7.33349609375L6.0000440234375,7.33349609375Q6.5522840234375,7.33349609375,6.9429140234375,6.94295609375Q7.3333740234375,6.55244609375,7.3333740234375,6.00016609375L7.3333740234375,4.33349609375Q7.3333740234375,3.0908560937500003,6.4546340234375,2.2121580937500003Q5.5760540234375,1.33349609375,4.3333740234375,1.33349609375Q3.0906940234375,1.33349609375,2.2121180234375,2.2121580937500003Q1.3333740234375,3.0908560937500003,1.3333740234375,4.33349609375Q1.3333740234375,5.57613609375,2.2121180234375,6.45483609375ZM8.6667040234375,4.33349609375L8.6667040234375,6.00016609375Q8.6667040234375,6.55244609375,9.0571740234375,6.94295609375Q9.4477940234375,7.33349609375,10.0000440234375,7.33349609375L11.6666740234375,7.33349609375Q12.9093740234375,7.33349609375,13.7879740234375,6.45483609375Q14.6666740234375,5.57613609375,14.6666740234375,4.33349609375Q14.6666740234375,3.0908560937500003,13.7879740234375,2.2121580937500003Q12.9093740234375,1.33349609375,11.6666740234375,1.33349609375Q10.4240340234375,1.33349609375,9.5454540234375,2.2121580937500003Q8.6667040234375,3.0908560937500003,8.6667040234375,4.33349609375ZM6.0000440234375,6.00016609375L4.3333740234375,6.00016609375Q3.6429440234375,6.00016609375,3.1548240234375,5.51200609375Q2.6667040234375,5.0238460937500005,2.6667040234375,4.33349609375Q2.6667040234375,3.64314609375,3.1548240234375,3.15498609375Q3.6429440234375,2.66682609375,4.3333740234375,2.66682609375Q5.0238040234375,2.66682609375,5.5119240234375,3.15498609375Q6.0000440234375,3.64314609375,6.0000440234375,4.33349609375L6.0000440234375,6.00016609375ZM11.6666740234375,6.00016609375L10.0000440234375,6.00016609375L10.0000440234375,4.33349609375Q10.0000440234375,3.64314609375,10.4881640234375,3.15498609375Q10.9762740234375,2.66682609375,11.6666740234375,2.66682609375Q12.3571740234375,2.66682609375,12.8452740234375,3.15498609375Q13.3333740234375,3.64314609375,13.3333740234375,4.33349609375Q13.3333740234375,5.0238460937500005,12.8452740234375,5.51200609375Q12.3571740234375,6.00016609375,11.6666740234375,6.00016609375ZM2.2121180234375,13.78819609375Q3.0906940234375,14.66679609375,4.3333740234375,14.66679609375Q5.5760540234375,14.66679609375,6.4546340234375,13.78819609375Q7.3333740234375,12.90949609375,7.3333740234375,11.66679609375L7.3333740234375,10.00016609375Q7.3333740234375,9.44787609375,6.9429140234375,9.057376093750001Q6.5522840234375,8.66682609375,6.0000440234375,8.66682609375L4.3333740234375,8.66682609375Q3.0906940234375,8.66682609375,2.2121180234375,9.54549609375Q1.3333740234375,10.42419609375,1.3333740234375,11.66679609375Q1.3333740234375,12.90949609375,2.2121180234375,13.78819609375ZM8.6667040234375,10.00016609375L8.6667040234375,11.66679609375Q8.6667040234375,12.90949609375,9.5454540234375,13.78819609375Q10.4240340234375,14.66679609375,11.6666740234375,14.66679609375Q12.9093740234375,14.66679609375,13.7879740234375,13.78819609375Q14.6666740234375,12.90949609375,14.6666740234375,11.66679609375Q14.6666740234375,10.42419609375,13.7879740234375,9.54549609375Q12.9093740234375,8.66682609375,11.6666740234375,8.66682609375L10.0000440234375,8.66682609375Q9.4477940234375,8.66682609375,9.0571740234375,9.057376093750001Q8.6667040234375,9.44787609375,8.6667040234375,10.00016609375ZM5.5119240234375,12.84529609375Q5.0238040234375,13.33349609375,4.3333740234375,13.33349609375Q3.6429440234375,13.33349609375,3.1548240234375,12.84529609375Q2.6667040234375,12.35719609375,2.6667040234375,11.66679609375Q2.6667040234375,10.97648609375,3.1548240234375,10.48832609375Q3.6429440234375,10.00016609375,4.3333740234375,10.00016609375L6.0000440234375,10.00016609375L6.0000440234375,11.66679609375Q6.0000440234375,12.35719609375,5.5119240234375,12.84529609375ZM10.4881640234375,12.84529609375Q10.0000440234375,12.35719609375,10.0000440234375,11.66679609375L10.0000440234375,10.00016609375L11.6666740234375,10.00016609375Q12.3571740234375,10.00016609375,12.8452740234375,10.48832609375Q13.3333740234375,10.97648609375,13.3333740234375,11.66679609375Q13.3333740234375,12.35719609375,12.8452740234375,12.84529609375Q12.3571740234375,13.33349609375,11.6666740234375,13.33349609375Q10.9762740234375,13.33349609375,10.4881640234375,12.84529609375Z" fill-rule="evenodd" fill="#4B4B4B" fill-opacity="1"/></g></g></svg>