<svg xmlns="http://www.w3.org/2000/svg" xmlns:xlink="http://www.w3.org/1999/xlink" fill="none" version="1.1" width="16" height="16" viewBox="0 0 16 16"><g><g><path d="M1.3333740234375,3.33333L1.3333740234375,13.2485Q1.3333740234375,13.5598,1.5534260234375,13.7799Q1.7736410234375,14,2.0848390234375,14L5.8447640234375,14Q6.3400440234375,14,6.7612740234375,14.2606Q7.1823340234375,14.5211,7.4035240234375,14.9643C7.4678140234375,15.0933,7.5723040234375,15.198,7.7012140234375,15.2626C7.8592540234375,15.3419,8.0423540234375,15.3551,8.2101640234375,15.2994C8.377974023437499,15.2436,8.516804023437501,15.1235,8.596074023437499,14.9655Q8.8185640234375,14.5216,9.2410840234375,14.2608Q9.6634540234375,14,10.1600340234375,14L13.9150740234375,14Q14.2264740234375,14,14.4464740234375,13.7799Q14.6666740234375,13.5597,14.6666740234375,13.2483L14.6666740234375,3.33333Q14.6666740234375,2.781047,14.2762740234375,2.3905440000000002Q13.8855740234375,2,13.3333740234375,2L2.6667040234375,2Q2.1144610234375,2,1.7238360234374999,2.3905440000000002Q1.3333740234375,2.781047,1.3333740234375,3.33333ZM8.6667040234375,13.0522Q9.3586040234375,12.6667,10.1600340234375,12.6667L13.3333740234375,12.6667L13.3333740234375,3.33333L8.6667040234375,3.33333L8.6667040234375,13.0522ZM7.3333740234375,3.33333L2.6667040234375,3.33333L2.6667040234375,12.6667L5.8447640234375,12.6667Q6.6435940234375,12.6667,7.3333740234375,13.0507L7.3333740234375,3.33333Z" fill-rule="evenodd" fill="#4B4B4B" fill-opacity="1"/></g></g></svg>