<svg xmlns="http://www.w3.org/2000/svg" xmlns:xlink="http://www.w3.org/1999/xlink" fill="none" version="1.1" width="12" height="13.333333969116211" viewBox="0 0 12 13.333333969116211"><g><path d="M10.6667,10.6667L2,10.6667Q1.7238,10.6667,1.52865,10.8619Q1.3335,11.057,1.33333,11.3328L1.33333,11.3333Q1.33333,11.6095,1.52865,11.8047Q1.7238,12,2,12L10.6667,12L10.6667,10.6667ZM10.6667,13.3333L2,13.3333Q1.17155,13.3333,0.585775,12.7476Q0,12.1617,0,11.3333L0,11.3325L0,2Q0,1.17159,0.585775,0.585775Q1.17155,0,2,0L10.6667,0Q11.2189,0,11.6095,0.390544Q12,0.781047,12,1.33333L12,12Q12,12.4832,11.701,12.8427Q11.6584,12.894,11.6095,12.9428Q11.2433,13.3089,10.735,13.3318Q10.7012,13.3333,10.6667,13.3333ZM10.6667,9.33333L10.6667,1.33333L2,1.33333Q1.7238,1.33333,1.52865,1.52861Q1.33333,1.72388,1.33333,2L1.33333,9.44133Q1.64437,9.33333,2,9.33333L10.6667,9.33333Z" fill-rule="evenodd" fill="#4B4B4B" fill-opacity="1"/></g></svg>